<?xml version="1.0" encoding="UTF-8"?>
<svg version="1.1" xmlns="http://www.w3.org/2000/svg" width="400" height="85">
<path d="M0 0 C-0.33 0.98097656 -0.66 1.96195313 -1 2.97265625 C-1.38800414 5.72817848 -1.19490569 6.71533153 0.3984375 9.04248047 C2.52074064 11.27435904 4.72117958 13.36567554 7 15.4375 C8.52320565 16.87118164 10.04406018 18.30736549 11.5625 19.74609375 C12.305 20.44331543 13.0475 21.14053711 13.8125 21.85888672 C17.09011979 25.06700341 20.03501805 28.5027407 23 32 C23.33 26.39 23.66 20.78 24 15 C23.01 14.67 22.02 14.34 21 14 C21.33 12.68 21.66 11.36 22 10 C24.24993359 9.97292861 26.49996095 9.95357171 28.75 9.9375 C30.00296875 9.92589844 31.2559375 9.91429687 32.546875 9.90234375 C36 10 36 10 37.9675293 10.51367188 C41.60029317 11.382917 45.36122191 10.79836909 49.0625 10.5625 C59.67027401 9.97215271 70.25477042 9.9115205 80.875 9.9375 C82.07275558 9.94029465 82.07275558 9.94029465 83.29470825 9.94314575 C87.8631835 9.95530486 92.43157957 9.9746848 97 10 C97 9.34 97 8.68 97 8 C103.04005141 7.37082798 107.0529124 7.91573999 112.0703125 11.421875 C115.28713812 14.05263927 118.1850703 16.9475606 121 20 C124.11400184 17.00576746 126.88449122 13.81332279 129.6328125 10.48828125 C131 9 131 9 133 8 C134.99960012 7.960008 137.00047242 7.95653201 139 8 C139 8.99 139 9.98 139 11 C137.64453125 12.21875 137.64453125 12.21875 135.8125 13.5 C130.28350536 17.95235471 128.18904621 24.43286137 126 31 C125.92026524 32.33525717 125.89228662 33.67412083 125.90234375 35.01171875 C125.90556641 35.76904297 125.90878906 36.52636719 125.91210938 37.30664062 C125.92048828 38.09232422 125.92886719 38.87800781 125.9375 39.6875 C125.94426758 40.88342773 125.94426758 40.88342773 125.95117188 42.10351562 C125.9629415 44.06904257 125.98087652 46.03453085 126 48 C126.66 48 127.32 48 128 48 C128 48.66 128 49.32 128 50 C125.93939936 50.36505516 123.87640368 50.71660715 121.8125 51.0625 C120.08966797 51.35833984 120.08966797 51.35833984 118.33203125 51.66015625 C115.21351634 51.97822284 113.00194217 51.80843264 110 51 C110.875 47.125 110.875 47.125 112 46 C112.83505783 35.39065877 112.09860057 26.69250079 105.75 17.875 C105.1725 17.25625 104.595 16.6375 104 16 C103.01 17.65 102.02 19.3 101 21 C99.125 20.6875 99.125 20.6875 97 20 C96.01 18.515 96.01 18.515 95 17 C92.41619823 16.74969023 92.41619823 16.74969023 90 17 C89.95052302 20.93265896 89.91424422 24.86519714 89.89013672 28.7980957 C89.87514505 30.79319618 89.84973269 32.78820946 89.82421875 34.78320312 C89.81455078 36.66362305 89.81455078 36.66362305 89.8046875 38.58203125 C89.78897705 40.31803589 89.78897705 40.31803589 89.77294922 42.08911133 C89.77680137 45.19421173 89.77680137 45.19421173 92 48 C92 48.99 92 49.98 92 51 C88.05352382 51.98844951 84.72607036 51.96191905 80.6875 51.5625 C79.61886719 51.46066406 78.55023438 51.35882813 77.44921875 51.25390625 C76.64097656 51.17011719 75.83273438 51.08632812 75 51 C75.875 47.125 75.875 47.125 77 46 C77.08775605 43.85441173 77.10695219 41.70595579 77.09765625 39.55859375 C77.09443359 38.25341797 77.09121094 36.94824219 77.08789062 35.60351562 C77.07953401 34.2148431 77.07106905 32.82617123 77.0625 31.4375 C77.05748666 30.04492344 77.05292347 28.65234519 77.04882812 27.25976562 C77.03699434 23.8398013 77.0205088 20.41992156 77 17 C73.37 17 69.74 17 66 17 C65.01 19.97 64.02 22.94 63 26 C62.01 26 61.02 26 60 26 C59.94589864 29.06273831 59.90627775 32.12451452 59.875 35.1875 C59.84986328 36.48397461 59.84986328 36.48397461 59.82421875 37.80664062 C59.78961767 42.32208103 59.84432084 45.90081483 62 50 C60 52 60 52 56.3046875 52.1953125 C54.82799892 52.182009 53.35137642 52.15814835 51.875 52.125 C51.12089844 52.11597656 50.36679688 52.10695312 49.58984375 52.09765625 C47.72642746 52.0740687 45.86317407 52.03819719 44 52 C44.66 50.35 45.32 48.7 46 47 C46.66 47 47.32 47 48 47 C48 36.77 48 26.54 48 16 C46.68 16.33 45.36 16.66 44 17 C44.495 17.8971875 44.495 17.8971875 45 18.8125 C46 21 46 21 46 24 C42.16423712 25.47529342 39.75140991 24.34639643 36 23 C35.93520246 26.85590338 35.95980876 30.70637417 36 34.5625 C35.97099609 36.19155273 35.97099609 36.19155273 35.94140625 37.85351562 C36.0157031 43.96234015 36.0157031 43.96234015 38.68945312 49.28881836 C43.16383871 53.3501275 47.05808894 55.04505001 53 56 C53 56.99 53 57.98 53 59 C48.38474041 60.53841986 44.349703 61.04813077 39.86328125 59.046875 C30.76967117 53.36540945 23.41143505 44.81586128 16.50390625 36.7265625 C14.44501641 34.36285001 12.24967462 32.18150266 10 30 C8.7937748 33.61867559 8.89183082 36.92506251 8.9375 40.6875 C8.94201172 41.38939453 8.94652344 42.09128906 8.95117188 42.81445312 C8.96293073 44.54300538 8.98086546 46.27151365 9 48 C9.99 48.33 10.98 48.66 12 49 C8.63000798 51.24666134 7.43894538 51.2457371 3.5 51.1875 C2.5409375 51.18105469 1.581875 51.17460938 0.59375 51.16796875 C-2 51 -2 51 -5 50 C-5 49.34 -5 48.68 -5 48 C-4.34 48 -3.68 48 -3 48 C-2.87620755 43.51604697 -2.78557429 39.03300398 -2.7253418 34.54785156 C-2.70022897 33.0229357 -2.66613117 31.49813985 -2.62280273 29.97363281 C-2.56199956 27.77899574 -2.53376113 25.5859519 -2.51171875 23.390625 C-2.48553467 22.07094727 -2.45935059 20.75126953 -2.43237305 19.39160156 C-2.68633497 15.81930909 -2.68633497 15.81930909 -5.53051758 13.53808594 C-6.34544678 13.03051758 -7.16037598 12.52294922 -8 12 C-8.96955709 15.26541793 -9.13726056 18.24919402 -9.17578125 21.6484375 C-9.19962891 22.73640625 -9.22347656 23.824375 -9.24804688 24.9453125 C-9.29086527 27.22377031 -9.32219731 29.50247418 -9.34179688 31.78125 C-9.50286456 38.11907612 -9.69916493 42.19793979 -14 47 C-18.59486394 51.15019969 -23.41858581 52.53203798 -29.5234375 52.37890625 C-35.3621347 51.485604 -40.22571963 48.88190569 -44.25390625 44.609375 C-47.2409894 39.78093922 -46.59984228 33.85938206 -46.625 28.375 C-46.6505387 26.13270237 -46.68405937 23.89047773 -46.7265625 21.6484375 C-46.73252441 20.66020996 -46.73848633 19.67198242 -46.74462891 18.65380859 C-47.00435729 15.95471917 -47.62169921 14.30949257 -49 12 C-48 11 -48 11 -44.62109375 10.90234375 C-43.22652923 10.90901631 -41.83198257 10.92097468 -40.4375 10.9375 C-39.72658203 10.94201172 -39.01566406 10.94652344 -38.28320312 10.95117188 C-36.52209987 10.96299136 -34.76103964 10.98092737 -33 11 C-33.24121582 11.81416382 -33.24121582 11.81416382 -33.48730469 12.64477539 C-34.53998163 17.48057274 -34.22763358 22.50849965 -34.25 27.4375 C-34.270625 28.56994141 -34.29125 29.70238281 -34.3125 30.86914062 C-34.31765625 31.96291016 -34.3228125 33.05667969 -34.328125 34.18359375 C-34.3374707 35.17931396 -34.34681641 36.17503418 -34.35644531 37.20092773 C-33.93840651 40.48367765 -32.97328073 42.36264579 -31 45 C-28.61128654 45.75128877 -28.61128654 45.75128877 -26 45.5625 C-25.13375 45.56378906 -24.2675 45.56507812 -23.375 45.56640625 C-20.92232458 45.19831211 -20.92232458 45.19831211 -19.38793945 43.40844727 C-17.51611294 40.16032615 -17.53294625 37.63627743 -17.41796875 33.8984375 C-17.38392693 32.88192612 -17.38392693 32.88192612 -17.34919739 31.84487915 C-17.30474248 30.41794357 -17.26734129 28.99077284 -17.23657227 27.56347656 C-17.18749269 25.37467378 -17.11200924 23.18791303 -17.03320312 21 C-16.85196813 15.49917932 -16.85196813 15.49917932 -17 10 C-17.66 9.34 -18.32 8.68 -19 8 C-18.859375 5.9765625 -18.859375 5.9765625 -18 4 C-16.328125 3.0234375 -16.328125 3.0234375 -14.25 2.375 C-13.52683594 2.14039063 -12.80367187 1.90578125 -12.05859375 1.6640625 C-11.37925781 1.44492187 -10.69992188 1.22578125 -10 1 C-9.113125 0.5875 -8.22625 0.175 -7.3125 -0.25 C-4.51077294 -1.15866823 -2.79783666 -0.7993819 0 0 Z " fill="#A0A0A0" transform="translate(66,15)"/>
<path d="M0 0 C1 1 1 1 1.09765625 3.50390625 C1.08605469 4.51324219 1.07445312 5.52257812 1.0625 6.5625 C1.05347656 7.57441406 1.04445313 8.58632813 1.03515625 9.62890625 C1.02355469 10.41136719 1.01195312 11.19382812 1 12 C0.01 12 -0.98 12 -2 12 C-2.66 10.35 -3.32 8.7 -4 7 C-5.32 7 -6.64 7 -8 7 C-8.0270043 8.45823212 -8.04639787 9.91660675 -8.0625 11.375 C-8.07410156 12.18710937 -8.08570313 12.99921875 -8.09765625 13.8359375 C-8.14466334 16.04937142 -8.14466334 16.04937142 -7 18 C-4.69 18 -2.38 18 0 18 C0.66 16.68 1.32 15.36 2 14 C2.66 14 3.32 14 4 14 C5.32229189 16.64458379 5.09677194 18.67761301 5.0625 21.625 C5.05347656 22.62789062 5.04445313 23.63078125 5.03515625 24.6640625 C5.02355469 25.43492188 5.01195312 26.20578125 5 27 C3.515 27.495 3.515 27.495 2 28 C1.34 27.01 0.68 26.02 0 25 C-1.96361864 24.42251197 -1.96361864 24.42251197 -4.125 24.3125 C-5.40375 24.209375 -6.6825 24.10625 -8 24 C-8.33 27.96 -8.66 31.92 -9 36 C-6.89551062 35.85890014 -4.7914123 35.71195825 -2.6875 35.5625 C-1.51574219 35.48128906 -0.34398437 35.40007813 0.86328125 35.31640625 C4.02590958 35.1132629 4.02590958 35.1132629 7 34 C7.33 33.175 7.66 32.35 8 31.5 C8.33 30.675 8.66 29.85 9 29 C9.99 28.67 10.98 28.34 12 28 C12.17791204 32.53675697 12.0461125 35.907775 10 40 C8.32837328 41.67162672 6.20394917 41.32576689 3.90625 41.5 C2.87628906 41.5825 1.84632813 41.665 0.78515625 41.75 C-2.5 42 -2.5 42 -5.78515625 42.25 C-6.81511719 42.3325 -7.84507812 42.415 -8.90625 42.5 C-10.33420898 42.60828125 -10.33420898 42.60828125 -11.79101562 42.71875 C-13.97138185 42.76733663 -13.97138185 42.76733663 -15 44 C-11.7 45.32 -8.4 46.64 -5 48 C-5 48.66 -5 49.32 -5 50 C-9.89563362 53.26375575 -15.27780623 52.55528981 -21 52 C-24.00816489 51.07220351 -26.44047279 49.81861144 -29 48 C-29.76699219 47.484375 -30.53398437 46.96875 -31.32421875 46.4375 C-35.07948305 43.0166461 -37.57725298 39.00409015 -40.3125 34.75 C-40.86228516 33.90953125 -41.41207031 33.0690625 -41.97851562 32.203125 C-43.32649798 30.14012592 -44.66664923 28.07247357 -46 26 C-47.15431591 29.94897547 -46.80958981 32.95205095 -46 37 C-45.34 37.99 -44.68 38.98 -44 40 C-47.59610969 42.39740646 -49.30092327 42.23987692 -53.5625 42.1875 C-54.71878906 42.18105469 -55.87507813 42.17460938 -57.06640625 42.16796875 C-60 42 -60 42 -62 41 C-61.125 37.125 -61.125 37.125 -60 36 C-59.9116033 33.6243148 -59.88469695 31.27791326 -59.90234375 28.90234375 C-59.9037587 28.19348526 -59.90517365 27.48462677 -59.90663147 26.75428772 C-59.91224557 24.48198288 -59.92480037 22.20977525 -59.9375 19.9375 C-59.94251319 18.40039204 -59.94707641 16.86328255 -59.95117188 15.32617188 C-59.96221958 11.55074358 -59.97949359 7.77538829 -60 4 C-60.66 4 -61.32 4 -62 4 C-62 3.01 -62 2.02 -62 1 C-57.97941398 0.88313557 -53.95926918 0.81252612 -49.9375 0.75 C-48.80376953 0.71648438 -47.67003906 0.68296875 -46.50195312 0.6484375 C-39.74554983 0.56964562 -35.45723785 0.88407764 -30 5 C-27.3475407 8.3444052 -27.57205007 11.8631507 -28 16 C-29.27754554 18.0360882 -30.60699818 20.04109119 -32 22 C-32 26.81502319 -30.86271681 27.99268419 -28 31.75 C-27.2575 32.73484375 -26.515 33.7196875 -25.75 34.734375 C-25.1725 35.48203125 -24.595 36.2296875 -24 37 C-23.01 36.67 -22.02 36.34 -21 36 C-20.97519317 31.81909587 -20.95708951 27.63823128 -20.94506836 23.45727539 C-20.94005435 22.03636936 -20.93324148 20.61546844 -20.92456055 19.19458008 C-20.91236612 17.14663424 -20.90674228 15.0987569 -20.90234375 13.05078125 C-20.89710693 11.82012939 -20.89187012 10.58947754 -20.88647461 9.3215332 C-20.98606183 6.40780381 -21.32200678 3.82692674 -22 1 C-19.45847098 0.83096719 -16.91681012 0.66470573 -14.375 0.5 C-13.30572266 0.42845703 -13.30572266 0.42845703 -12.21484375 0.35546875 C-8.13982467 0.09377028 -4.08487349 -0.1508261 0 0 Z M-47 6 C-48.21570074 6.99646464 -48.21570074 6.99646464 -48.1328125 8.9609375 C-48.13023437 9.75757813 -48.12765625 10.55421875 -48.125 11.375 C-48.12757813 12.16648437 -48.13015625 12.95796875 -48.1328125 13.7734375 C-48.08617666 16.17343496 -48.08617666 16.17343496 -47 19 C-44.62694422 19.41780879 -44.62694422 19.41780879 -42 19 C-39.48608713 16.15089874 -38.97569955 14.61966137 -39.125 10.8125 C-39.77005187 7.69851109 -39.77005187 7.69851109 -43 6 C-44.32 6 -45.64 6 -47 6 Z " fill="#141414" transform="translate(317,25)"/>
<path d="M0 0 C6.04005141 -0.62917202 10.0529124 -0.08426001 15.0703125 3.421875 C18.28713812 6.05263927 21.1850703 8.9475606 24 12 C27.11400184 9.00576746 29.88449122 5.81332279 32.6328125 2.48828125 C34 1 34 1 36 0 C37.99960012 -0.039992 40.00047242 -0.04346799 42 0 C42 0.99 42 1.98 42 3 C40.64453125 4.21875 40.64453125 4.21875 38.8125 5.5 C33.28350536 9.95235471 31.18904621 16.43286137 29 23 C28.92026524 24.33525717 28.89228662 25.67412083 28.90234375 27.01171875 C28.90556641 27.76904297 28.90878906 28.52636719 28.91210938 29.30664062 C28.92048828 30.09232422 28.92886719 30.87800781 28.9375 31.6875 C28.94201172 32.48478516 28.94652344 33.28207031 28.95117188 34.10351562 C28.9629415 36.06904257 28.98087652 38.03453085 29 40 C29.66 40 30.32 40 31 40 C31 40.66 31 41.32 31 42 C28.93939936 42.36505516 26.87640368 42.71660715 24.8125 43.0625 C23.08966797 43.35833984 23.08966797 43.35833984 21.33203125 43.66015625 C18.21351634 43.97822284 16.00194217 43.80843264 13 43 C13.875 39.125 13.875 39.125 15 38 C15.83505783 27.39065877 15.09860057 18.69250079 8.75 9.875 C8.1725 9.25625 7.595 8.6375 7 8 C6.01 9.65 5.02 11.3 4 13 C2.125 12.6875 2.125 12.6875 0 12 C-0.66 11.01 -1.32 10.02 -2 9 C-4.58380177 8.74969023 -4.58380177 8.74969023 -7 9 C-7.04947698 12.93265896 -7.08575578 16.86519714 -7.10986328 20.7980957 C-7.12485495 22.79319618 -7.15026731 24.78820946 -7.17578125 26.78320312 C-7.18222656 28.03681641 -7.18867188 29.29042969 -7.1953125 30.58203125 C-7.20578613 31.73936768 -7.21625977 32.8967041 -7.22705078 34.08911133 C-7.22319863 37.19421173 -7.22319863 37.19421173 -5 40 C-5 40.99 -5 41.98 -5 43 C-8.94647618 43.98844951 -12.27392964 43.96191905 -16.3125 43.5625 C-17.38113281 43.46066406 -18.44976562 43.35882813 -19.55078125 43.25390625 C-20.35902344 43.17011719 -21.16726562 43.08632812 -22 43 C-21.125 39.125 -21.125 39.125 -20 38 C-19.91224395 35.85441173 -19.89304781 33.70595579 -19.90234375 31.55859375 C-19.90556641 30.25341797 -19.90878906 28.94824219 -19.91210938 27.60351562 C-19.92046599 26.2148431 -19.92893095 24.82617123 -19.9375 23.4375 C-19.94251334 22.04492344 -19.94707653 20.65234519 -19.95117188 19.25976562 C-19.96300566 15.8398013 -19.9794912 12.41992156 -20 9 C-23.63 9 -27.26 9 -31 9 C-31.99 11.97 -32.98 14.94 -34 18 C-34.99 18 -35.98 18 -37 18 C-37.05410136 21.06273831 -37.09372225 24.12451452 -37.125 27.1875 C-37.14175781 28.05181641 -37.15851563 28.91613281 -37.17578125 29.80664062 C-37.18222656 30.64775391 -37.18867187 31.48886719 -37.1953125 32.35546875 C-37.20578613 33.12528076 -37.21625977 33.89509277 -37.22705078 34.68823242 C-37.05605457 37.53377134 -37.05605457 37.53377134 -35 42 C-39.95 42 -44.9 42 -50 42 C-49.67 41.34 -49.34 40.68 -49 40 C-48.84373424 37.52167341 -48.74186802 35.06688669 -48.68359375 32.5859375 C-48.66281265 31.85629791 -48.64203156 31.12665833 -48.62062073 30.37490845 C-48.55518083 28.04170237 -48.49626632 25.70838279 -48.4375 23.375 C-48.39430947 21.79425905 -48.35069501 20.21352961 -48.30664062 18.6328125 C-48.19950519 14.75532496 -48.09822218 10.87772315 -48 7 C-50.64 7.33 -53.28 7.66 -56 8 C-55.34414811 11.60992379 -55.34414811 11.60992379 -54 15 C-56.16874252 14.49396008 -57.99967627 14.00016187 -60 13 C-60.25 10.75 -60.25 10.75 -60 8 C-56.26898016 3.35153403 -52.8381069 3.03711204 -47.15478516 2.31347656 C-38.3656409 1.53490796 -29.50050552 1.79795434 -20.6875 1.875 C-18.67513468 1.88505291 -16.66276448 1.89417466 -14.65039062 1.90234375 C-9.7668046 1.92416714 -4.88345743 1.95856885 0 2 C0 1.34 0 0.68 0 0 Z " fill="#BDBDBD" transform="translate(163,23)"/>
<path d="M0 0 C1 1 1 1 1.09765625 3.50390625 C1.08605469 4.51324219 1.07445312 5.52257812 1.0625 6.5625 C1.05347656 7.57441406 1.04445313 8.58632813 1.03515625 9.62890625 C1.02355469 10.41136719 1.01195312 11.19382812 1 12 C0.01 12 -0.98 12 -2 12 C-2.66 10.35 -3.32 8.7 -4 7 C-5.32 7 -6.64 7 -8 7 C-8.0270043 8.45823212 -8.04639787 9.91660675 -8.0625 11.375 C-8.07410156 12.18710937 -8.08570313 12.99921875 -8.09765625 13.8359375 C-8.14466334 16.04937142 -8.14466334 16.04937142 -7 18 C-4.69 18 -2.38 18 0 18 C0.66 16.68 1.32 15.36 2 14 C2.66 14 3.32 14 4 14 C5.32229189 16.64458379 5.09677194 18.67761301 5.0625 21.625 C5.05347656 22.62789062 5.04445313 23.63078125 5.03515625 24.6640625 C5.02355469 25.43492188 5.01195312 26.20578125 5 27 C4.01 27.33 3.02 27.66 2 28 C1.34 27.01 0.68 26.02 0 25 C-1.96361864 24.42251197 -1.96361864 24.42251197 -4.125 24.3125 C-5.40375 24.209375 -6.6825 24.10625 -8 24 C-8.33 27.96 -8.66 31.92 -9 36 C-6.89551062 35.85890014 -4.7914123 35.71195825 -2.6875 35.5625 C-1.51574219 35.48128906 -0.34398437 35.40007813 0.86328125 35.31640625 C4.02590958 35.1132629 4.02590958 35.1132629 7 34 C7.33 33.175 7.66 32.35 8 31.5 C8.33 30.675 8.66 29.85 9 29 C9.99 28.67 10.98 28.34 12 28 C12.17791204 32.53675697 12.0461125 35.907775 10 40 C8.32837328 41.67162672 6.20394917 41.32576689 3.90625 41.5 C2.87628906 41.5825 1.84632813 41.665 0.78515625 41.75 C-2.5 42 -2.5 42 -5.78515625 42.25 C-6.81511719 42.3325 -7.84507812 42.415 -8.90625 42.5 C-10.33420898 42.60828125 -10.33420898 42.60828125 -11.79101562 42.71875 C-13.97138185 42.76733663 -13.97138185 42.76733663 -15 44 C-10.05 45.98 -10.05 45.98 -5 48 C-5 48.66 -5 49.32 -5 50 C-5.66 50 -6.32 50 -7 50 C-7 49.34 -7 48.68 -7 48 C-7.804375 48.12375 -8.60875 48.2475 -9.4375 48.375 C-17.4227011 47.53445252 -22.88867002 41.46814106 -27.78515625 35.5390625 C-28.38650391 34.77722656 -28.38650391 34.77722656 -29 34 C-28.67 33.34 -28.34 32.68 -28 32 C-26.68 33.65 -25.36 35.3 -24 37 C-22.515 36.505 -22.515 36.505 -21 36 C-20.97519317 31.81909587 -20.95708951 27.63823128 -20.94506836 23.45727539 C-20.94005435 22.03636936 -20.93324148 20.61546844 -20.92456055 19.19458008 C-20.91236612 17.14663424 -20.90674228 15.0987569 -20.90234375 13.05078125 C-20.89710693 11.82012939 -20.89187012 10.58947754 -20.88647461 9.3215332 C-20.98606183 6.40780381 -21.32200678 3.82692674 -22 1 C-19.45847098 0.83096719 -16.91681012 0.66470573 -14.375 0.5 C-13.30572266 0.42845703 -13.30572266 0.42845703 -12.21484375 0.35546875 C-8.13982467 0.09377028 -4.08487349 -0.1508261 0 0 Z " fill="#1D1D1D" transform="translate(317,25)"/>
<path d="M0 0 C7.59 0 15.18 0 23 0 C23 3.3 23 6.6 23 10 C22.01 10 21.02 10 20 10 C19.67 9.01 19.34 8.02 19 7 C17.68 6.67 16.36 6.34 15 6 C15 9.3 15 12.6 15 16 C19.48133574 16.72256829 19.48133574 16.72256829 24 17 C24.33 15.68 24.66 14.36 25 13 C25.66 13 26.32 13 27 13 C28.04976964 16.14930893 28.10131595 18.38814456 28.0625 21.6875 C28.05347656 22.68136719 28.04445313 23.67523438 28.03515625 24.69921875 C28.02355469 25.45847656 28.01195312 26.21773437 28 27 C27.01 27 26.02 27 25 27 C24.34 26.01 23.68 25.02 23 24 C21.02252878 23.63702064 21.02252878 23.63702064 18.875 23.8125 C17.59625 23.874375 16.3175 23.93625 15 24 C15 27.3 15 30.6 15 34 C16.91541138 34.10841951 18.83259773 34.18578079 20.75 34.25 C21.81734375 34.29640625 22.8846875 34.3428125 23.984375 34.390625 C27.09066136 34.24961977 27.09066136 34.24961977 29.328125 32.171875 C31.17703599 30.01572714 31.17703599 30.01572714 32 27 C32.99 27.33 33.98 27.66 35 28 C34.71905418 29.8141927 34.42493567 31.62635001 34.125 33.4375 C33.88136719 34.95150391 33.88136719 34.95150391 33.6328125 36.49609375 C33.42398438 37.32238281 33.21515625 38.14867187 33 39 C28.53319182 41.23340409 22.53981428 40.49788525 17.625 40.6875 C15.75714844 40.77741211 15.75714844 40.77741211 13.8515625 40.86914062 C12.6553125 40.91619141 11.4590625 40.96324219 10.2265625 41.01171875 C8.58034912 41.08072388 8.58034912 41.08072388 6.90087891 41.15112305 C4.00557894 41.00029064 2.43630969 40.51133913 0 39 C0 38.34 0 37.68 0 37 C0.66 37 1.32 37 2 37 C1.91621094 36.24074219 1.83242188 35.48148438 1.74609375 34.69921875 C1.64425781 33.70535156 1.54242188 32.71148437 1.4375 31.6875 C1.33308594 30.70136719 1.22867187 29.71523438 1.12109375 28.69921875 C1 26 1 26 2 23 C2.12234153 20.15484822 2.18512524 17.34496787 2.1875 14.5 C2.19974609 13.72785156 2.21199219 12.95570312 2.22460938 12.16015625 C2.23476991 8.2517352 2.21572048 6.32358072 0 3 C0 2.01 0 1.02 0 0 Z " fill="#898989" transform="translate(330,26)"/>
<path d="M0 0 C8.81931212 3.90855878 15.48354242 12.39655791 21.80078125 19.48168945 C22.51234375 20.27385864 22.51234375 20.27385864 23.23828125 21.08203125 C23.65118408 21.54843018 24.06408691 22.0148291 24.48950195 22.49536133 C26.50293105 24.50098013 28.78084784 26.22467827 31 28 C31 20.74 31 13.48 31 6 C30.34 6 29.68 6 29 6 C29 5.34 29 4.68 29 4 C32.96 4 36.92 4 41 4 C41 4.66 41 5.32 41 6 C40.34 6 39.68 6 39 6 C39.33 17.55 39.66 29.1 40 41 C41.32 41.66 42.64 42.32 44 43 C46.0167658 44.64633943 48.01739574 46.31267723 50 48 C50.99 48.66 51.98 49.32 53 50 C45.01066816 50.78326783 45.01066816 50.78326783 41.5 48.0625 C40.675 47.051875 39.85 46.04125 39 45 C37.55204586 43.55204586 36.09258467 42.11555377 34.625 40.6875 C31.19735424 37.26551043 27.98244195 33.73707316 24.83984375 30.0546875 C21.95919656 26.83765901 18.83936295 23.86943962 15.72265625 20.8828125 C14 19 14 19 14 17 C13.34 17 12.68 17 12 17 C12.33 24.92 12.66 32.84 13 41 C10.03 41 7.06 41 4 41 C3.98541748 39.99098633 3.97083496 38.98197266 3.95581055 37.94238281 C3.89775886 34.19235109 3.82052708 30.44291554 3.73754883 26.69335938 C3.70433165 25.07171314 3.67628965 23.44995219 3.65356445 21.828125 C3.61995845 19.49429523 3.5676424 17.16151365 3.51171875 14.828125 C3.50532883 14.10506165 3.4989389 13.38199829 3.49235535 12.63702393 C3.36886481 8.39216641 2.76350308 6.19689463 0 3 C0 2.01 0 1.02 0 0 Z " fill="#151515" transform="translate(61,23)"/>
<path d="M0 0 C0.495 4.95 0.495 4.95 1 10 C-0.32 10.33 -1.64 10.66 -3 11 C-3 10.01 -3 9.02 -3 8 C-5.97 7.67 -8.94 7.34 -12 7 C-12 17.23 -12 27.46 -12 38 C-11.01 38.33 -10.02 38.66 -9 39 C-12.33469812 41.22313208 -14.06579733 41.42214978 -18 41.75 C-19.5778125 41.89695312 -19.5778125 41.89695312 -21.1875 42.046875 C-24 42 -24 42 -27 40 C-27 39.34 -27 38.68 -27 38 C-26.34 38 -25.68 38 -25 38 C-24.67 27.44 -24.34 16.88 -24 6 C-29.94 6.495 -29.94 6.495 -36 7 C-36.99 9.97 -37.98 12.94 -39 16 C-43 14 -43 14 -43.9375 11.1875 C-44.01144084 7.41651696 -43.29251631 5.94752097 -41 3 C-37.6541659 0.76944393 -36.36742159 0.70964647 -32.44140625 0.5859375 C-31.33216797 0.54726563 -30.22292969 0.50859375 -29.08007812 0.46875 C-27.33887695 0.42234375 -27.33887695 0.42234375 -25.5625 0.375 C-24.43650391 0.33632813 -23.31050781 0.29765625 -22.15039062 0.2578125 C-14.76540907 0.01999826 -7.38839027 -0.045343 0 0 Z " fill="#010101" transform="translate(254,25)"/>
<path d="M0 0 C-0.33 0.98097656 -0.66 1.96195313 -1 2.97265625 C-1.38800414 5.72817848 -1.19490569 6.71533153 0.3984375 9.04248047 C2.52074064 11.27435904 4.72117958 13.36567554 7 15.4375 C8.52320565 16.87118164 10.04406018 18.30736549 11.5625 19.74609375 C12.305 20.44331543 13.0475 21.14053711 13.8125 21.85888672 C17.09011979 25.06700341 20.03501805 28.5027407 23 32 C23.33 26.39 23.66 20.78 24 15 C23.01 14.67 22.02 14.34 21 14 C21.33 12.68 21.66 11.36 22 10 C24.24993359 9.97292861 26.49996095 9.95357171 28.75 9.9375 C30.00296875 9.92589844 31.2559375 9.91429687 32.546875 9.90234375 C35.34446499 9.98146111 37.35153826 10.29374354 40 11 C41.74886981 11.06624507 43.50002748 11.08552595 45.25 11.0625 C46.14203125 11.05347656 47.0340625 11.04445313 47.953125 11.03515625 C48.62859375 11.02355469 49.3040625 11.01195312 50 11 C50 11.33 50 11.66 50 12 C49.38511719 12.03738281 48.77023438 12.07476562 48.13671875 12.11328125 C46.92435547 12.21189453 46.92435547 12.21189453 45.6875 12.3125 C44.88699219 12.37050781 44.08648437 12.42851562 43.26171875 12.48828125 C40.58941558 13.09289561 39.65522271 13.84821048 38 16 C37.27802838 18.60611077 37.27802838 18.60611077 37 21 C38.32 21 39.64 21 41 21 C40.814375 20.195625 40.62875 19.39125 40.4375 18.5625 C40.2209375 17.2940625 40.2209375 17.2940625 40 16 C41 15 41 15 42.84765625 14.90234375 C44.8984375 14.93489583 46.94921875 14.96744792 49 15 C49.02465288 19.68139254 49.04283739 24.36274759 49.05493164 29.04418945 C49.05997157 30.63794614 49.0668035 32.23169819 49.07543945 33.82543945 C49.08751999 36.11150253 49.09323155 38.39750467 49.09765625 40.68359375 C49.10281754 41.40026718 49.10797882 42.11694061 49.11329651 42.85533142 C49.11349263 44.57063672 49.06192007 46.28581266 49 48 C48.67 48.33 48.34 48.66 48 49 C52.29 49.33 56.58 49.66 61 50 C60.505 50.99 60.505 50.99 60 52 C54.72 52 49.44 52 44 52 C44.66 50.35 45.32 48.7 46 47 C46.66 47 47.32 47 48 47 C48 36.77 48 26.54 48 16 C46.68 16.33 45.36 16.66 44 17 C44.495 17.8971875 44.495 17.8971875 45 18.8125 C46 21 46 21 46 24 C42.16423712 25.47529342 39.75140991 24.34639643 36 23 C35.93520246 26.85590338 35.95980876 30.70637417 36 34.5625 C35.97099609 36.19155273 35.97099609 36.19155273 35.94140625 37.85351562 C36.0157031 43.96234015 36.0157031 43.96234015 38.68945312 49.28881836 C43.16383871 53.3501275 47.05808894 55.04505001 53 56 C53 56.99 53 57.98 53 59 C50.24921116 59.91692961 48.64051087 60.10886083 45.8125 60.0625 C44.554375 60.041875 43.29625 60.02125 42 60 C41.67 59.34 41.34 58.68 41 58 C42.32 57.67 43.64 57.34 45 57 C44.28972656 56.44570312 43.57945313 55.89140625 42.84765625 55.3203125 C41.92855469 54.59585938 41.00945312 53.87140625 40.0625 53.125 C39.14597656 52.40570313 38.22945313 51.68640625 37.28515625 50.9453125 C35 49 35 49 34 47 C33.91350549 44.51900266 33.88434946 42.06655072 33.90234375 39.5859375 C33.9037587 38.85629791 33.90517365 38.12665833 33.90663147 37.37490845 C33.91223469 35.04156415 33.92478765 32.70831536 33.9375 30.375 C33.94251459 28.79427222 33.94707757 27.21354293 33.95117188 25.6328125 C33.96220516 21.75517146 33.97947189 17.87760193 34 14 C34.66 14 35.32 14 36 14 C36 13.34 36 12.68 36 12 C32.04 12 28.08 12 24 12 C24 12.66 24 13.32 24 14 C24.66 14 25.32 14 26 14 C26 21.26 26 28.52 26 36 C22.14221683 34.07110842 20.1662139 32.40531367 17.1875 29.375 C16.30191406 28.47523437 15.41632813 27.57546875 14.50390625 26.6484375 C12.45756377 24.48397541 10.52665063 22.28945653 8.625 20 C5.15718832 15.90547537 1.11209422 12.63272066 -3.08935547 9.32421875 C-4.42648117 8.25690516 -5.71780379 7.13271193 -7 6 C-7 5.34 -7 4.68 -7 4 C-6.34 3.67 -5.68 3.34 -5 3 C-8.41021743 3.78697325 -11.68885166 4.87119943 -15 6 C-14.34 6.33 -13.68 6.66 -13 7 C-13.16209961 7.68843994 -13.32419922 8.37687988 -13.49121094 9.08618164 C-14.05503527 12.31518518 -14.12685428 15.3434317 -14.140625 18.62109375 C-14.15996094 19.88630859 -14.17929687 21.15152344 -14.19921875 22.45507812 C-14.23302116 25.10596696 -14.25129818 27.75710007 -14.25390625 30.40820312 C-14.46291261 41.21603179 -14.46291261 41.21603179 -17.21484375 44.88671875 C-20.29276833 47.22214259 -21.51745982 47.67860321 -25.3125 47.375 C-26.19550781 47.32085937 -27.07851563 47.26671875 -27.98828125 47.2109375 C-28.65214844 47.14132813 -29.31601562 47.07171875 -30 47 C-30 46.67 -30 46.34 -30 46 C-29.38511719 45.97421875 -28.77023438 45.9484375 -28.13671875 45.921875 C-27.32847656 45.86515625 -26.52023438 45.8084375 -25.6875 45.75 C-24.88699219 45.70359375 -24.08648437 45.6571875 -23.26171875 45.609375 C-20.1837309 44.78007257 -19.59213253 43.74569023 -18 41 C-17.46292711 37.64894812 -17.46292711 37.64894812 -17.41796875 33.8984375 C-17.3952742 33.22076324 -17.37257965 32.54308899 -17.34919739 31.84487915 C-17.30474248 30.41794357 -17.26734129 28.99077284 -17.23657227 27.56347656 C-17.18749269 25.37467378 -17.11200924 23.18791303 -17.03320312 21 C-16.85196813 15.49917932 -16.85196813 15.49917932 -17 10 C-17.66 9.34 -18.32 8.68 -19 8 C-18.859375 5.9765625 -18.859375 5.9765625 -18 4 C-16.328125 3.0234375 -16.328125 3.0234375 -14.25 2.375 C-13.52683594 2.14039063 -12.80367187 1.90578125 -12.05859375 1.6640625 C-11.37925781 1.44492187 -10.69992188 1.22578125 -10 1 C-9.113125 0.5875 -8.22625 0.175 -7.3125 -0.25 C-4.51077294 -1.15866823 -2.79783666 -0.7993819 0 0 Z " fill="#DEDEDE" transform="translate(66,15)"/>
<path d="M0 0 C0.76978683 0.00565979 1.53957367 0.01131958 2.33268738 0.01715088 C4.77842818 0.03944628 7.22267485 0.08962625 9.66796875 0.140625 C11.33135897 0.160699 12.99477228 0.1789482 14.65820312 0.1953125 C18.72452933 0.23928816 22.78974619 0.30826521 26.85546875 0.390625 C26.85546875 2.040625 26.85546875 3.690625 26.85546875 5.390625 C20.91546875 4.400625 20.91546875 4.400625 14.85546875 3.390625 C14.97358856 8.05388882 15.09782741 12.7169338 15.2277832 17.37988281 C15.27114116 18.96675157 15.31281562 20.55366724 15.3527832 22.140625 C15.41046507 24.41941479 15.47416513 26.69796822 15.5390625 28.9765625 C15.55577499 29.68807465 15.57248749 30.39958679 15.58970642 31.13265991 C15.65268812 34.88723317 15.65268812 34.88723317 16.85546875 38.390625 C12.23546875 38.390625 7.61546875 38.390625 2.85546875 38.390625 C3.84546875 37.895625 3.84546875 37.895625 4.85546875 37.390625 C5.18546875 26.170625 5.51546875 14.950625 5.85546875 3.390625 C-2.42142011 3.38024527 -2.42142011 3.38024527 -10.14453125 5.390625 C-10.55182353 7.71219097 -10.88891802 10.0475037 -11.14453125 12.390625 C-11.80453125 12.060625 -12.46453125 11.730625 -13.14453125 11.390625 C-13.45703125 8.140625 -13.45703125 8.140625 -13.14453125 4.390625 C-9.22178018 0.0786951 -5.53075101 -0.15434829 0 0 Z " fill="#1A1A1A" transform="translate(139.14453125,26.609375)"/>
<path d="M0 0 C4.02058602 -0.11686443 8.04073082 -0.18747388 12.0625 -0.25 C13.19623047 -0.28351562 14.32996094 -0.31703125 15.49804688 -0.3515625 C22.25445017 -0.43035438 26.54276215 -0.11592236 32 4 C34.6524593 7.3444052 34.42794993 10.8631507 34 15 C32.72245446 17.0360882 31.39300182 19.04109119 30 21 C30 22.32 30 23.64 30 25 C29.67 25.66 29.34 26.32 29 27 C27.35 25.35 25.7 23.7 24 22 C25.4540625 21.1028125 25.4540625 21.1028125 26.9375 20.1875 C30.23052042 18.28872491 30.23052042 18.28872491 31 15 C31.37458176 10.10786701 31.37458176 10.10786701 29.6875 5.625 C26.83898571 2.88198624 24.09182843 2.878396 20.33203125 2.90234375 C19.1251062 2.90609009 19.1251062 2.90609009 17.89379883 2.90991211 C16.87697021 2.91901611 15.8601416 2.92812012 14.8125 2.9375 C11.574375 2.958125 8.33625 2.97875 5 3 C5 14.55 5 26.1 5 38 C7.64 38 10.28 38 13 38 C13 26.78 13 15.56 13 4 C15.97 4.33 18.94 4.66 22 5 C24.02738766 9.05477531 24.53700883 10.61442789 24 15 C22.1875 17.875 22.1875 17.875 20 20 C19.01 20 18.02 20 17 20 C19.64609211 26.16957266 22.93185995 31.56528474 27 36.875 C27.41491699 37.4218042 27.82983398 37.9686084 28.25732422 38.53198242 C32.06428574 43.38828913 35.97919804 47.25405743 42 49 C45.35505526 49.24049932 45.35505526 49.24049932 48.8125 49.125 C49.97394531 49.10695312 51.13539063 49.08890625 52.33203125 49.0703125 C53.21246094 49.04710937 54.09289062 49.02390625 55 49 C54.505 49.99 54.505 49.99 54 51 C46.10287917 51.43337858 39.6191868 51.70310641 33 47 C32.23300781 46.484375 31.46601563 45.96875 30.67578125 45.4375 C26.92051695 42.0166461 24.42274702 38.00409015 21.6875 33.75 C21.13771484 32.90953125 20.58792969 32.0690625 20.02148438 31.203125 C18.67350202 29.14012592 17.33335077 27.07247357 16 25 C14.84568409 28.94897547 15.19041019 31.95205095 16 36 C16.66 36.99 17.32 37.98 18 39 C14.40389031 41.39740646 12.69907673 41.23987692 8.4375 41.1875 C7.28121094 41.18105469 6.12492187 41.17460938 4.93359375 41.16796875 C2 41 2 41 0 40 C0.875 36.125 0.875 36.125 2 35 C2.0883967 32.6243148 2.11530305 30.27791326 2.09765625 27.90234375 C2.0962413 27.19348526 2.09482635 26.48462677 2.09336853 25.75428772 C2.08775443 23.48198288 2.07519963 21.20977525 2.0625 18.9375 C2.05748681 17.40039204 2.05292359 15.86328255 2.04882812 14.32617188 C2.03778042 10.55074358 2.02050641 6.77538829 2 3 C1.34 3 0.68 3 0 3 C0 2.01 0 1.02 0 0 Z M15 5 C13.78429926 5.99646464 13.78429926 5.99646464 13.8671875 7.9609375 C13.86976563 8.75757813 13.87234375 9.55421875 13.875 10.375 C13.87242187 11.16648437 13.86984375 11.95796875 13.8671875 12.7734375 C13.91382334 15.17343496 13.91382334 15.17343496 15 18 C17.37305578 18.41780879 17.37305578 18.41780879 20 18 C22.51391287 15.15089874 23.02430045 13.61966137 22.875 9.8125 C22.22994813 6.69851109 22.22994813 6.69851109 19 5 C17.68 5 16.36 5 15 5 Z " fill="#ADADAD" transform="translate(255,26)"/>
<path d="M0 0 C-0.99 0.495 -0.99 0.495 -2 1 C-2 12.55 -2 24.1 -2 36 C-0.515 36.495 -0.515 36.495 1 37 C1 37.33 1 37.66 1 38 C-3.62 38 -8.24 38 -13 38 C-12.67 37.34 -12.34 36.68 -12 36 C-11.84373424 33.52167341 -11.74186802 31.06688669 -11.68359375 28.5859375 C-11.66281265 27.85629791 -11.64203156 27.12665833 -11.62062073 26.37490845 C-11.55518083 24.04170237 -11.49626632 21.70838279 -11.4375 19.375 C-11.39430947 17.79425905 -11.35069501 16.21352961 -11.30664062 14.6328125 C-11.19950519 10.75532496 -11.09822218 6.87772315 -11 3 C-13.64 3.33 -16.28 3.66 -19 4 C-18.34414811 7.60992379 -18.34414811 7.60992379 -17 11 C-19.16874252 10.49396008 -20.99967627 10.00016187 -23 9 C-23.3650363 4.49788558 -23.3650363 4.49788558 -21.80859375 2.375 C-19.44654708 0.57923234 -17.82133924 0.5013679 -14.875 0.3125 C-13.42287109 0.21582031 -13.42287109 0.21582031 -11.94140625 0.1171875 C-7.95286311 -0.0417186 -3.99128102 -0.06543084 0 0 Z " fill="#1E1E1E" transform="translate(126,27)"/>
<path d="M0 0 C4.28411472 -0.64261721 6.63623959 0.11145602 10.0625 2.5625 C13.8619149 5.6326606 16.44402209 8.8465359 19 13 C19 13.66 19 14.32 19 15 C19.66 15 20.32 15 21 15 C21.309375 14.01 21.309375 14.01 21.625 13 C23.87061287 8.10048102 27.19285794 3.80714206 31 0 C33.625 -0.125 33.625 -0.125 36 0 C35.2575 0.721875 34.515 1.44375 33.75 2.1875 C23.3920488 12.78085918 22.33276752 23.8074651 22 38 C23.485 38.495 23.485 38.495 25 39 C25 39.33 25 39.66 25 40 C20.38 40 15.76 40 11 40 C11.66 39.01 12.32 38.02 13 37 C14.47100069 25.27104762 12.98358968 15.74094796 6 6 C4.07334861 4.21734171 2.06500413 2.62626388 0 1 C0 0.67 0 0.34 0 0 Z " fill="#111111" transform="translate(167,25)"/>
<path d="M0 0 C1.134375 0.020625 2.26875 0.04125 3.4375 0.0625 C-0.3125 2.0625 -0.3125 2.0625 -2.5625 2.0625 C-1.75243474 3.70953306 -0.9393779 5.35509506 -0.125 7 C0.55369141 8.37478516 0.55369141 8.37478516 1.24609375 9.77734375 C2.24275394 11.96778904 2.24275394 11.96778904 3.4375 13.0625 C3.52597743 15.58344076 3.55277301 18.07680893 3.53515625 20.59765625 C3.5337413 21.35090683 3.53232635 22.10415741 3.53086853 22.88023376 C3.52525376 25.2951956 3.51269883 27.71006601 3.5 30.125 C3.4949869 31.75846221 3.49042366 33.39192586 3.48632812 35.02539062 C3.47527954 39.03779585 3.45800506 43.05013241 3.4375 47.0625 C6.0775 46.7325 8.7175 46.4025 11.4375 46.0625 C11.4375 38.4725 11.4375 30.8825 11.4375 23.0625 C12.0975 23.0625 12.7575 23.0625 13.4375 23.0625 C14.84765625 24.49609375 14.84765625 24.49609375 16.5 26.5 C19.18924994 29.67007217 21.97263377 32.64831525 24.9375 35.5625 C30.83922161 41.39396302 36.16169581 47.66758583 41.4375 54.0625 C37.52540692 52.46834497 35.06531914 49.92356668 32.125 46.9375 C31.6407959 46.44685059 31.1565918 45.95620117 30.65771484 45.45068359 C27.28515324 42.00624588 24.07078184 38.45382524 20.94140625 34.7890625 C18.88251641 32.42535001 16.68717462 30.24400266 14.4375 28.0625 C13.2312748 31.68117559 13.32933082 34.98756251 13.375 38.75 C13.37951172 39.45189453 13.38402344 40.15378906 13.38867188 40.87695312 C13.40043073 42.60550538 13.41836546 44.33401365 13.4375 46.0625 C14.4275 46.3925 15.4175 46.7225 16.4375 47.0625 C13.06750798 49.30916134 11.87644538 49.3082371 7.9375 49.25 C6.9784375 49.24355469 6.019375 49.23710938 5.03125 49.23046875 C2.4375 49.0625 2.4375 49.0625 -0.5625 48.0625 C-0.5625 47.4025 -0.5625 46.7425 -0.5625 46.0625 C0.0975 46.0625 0.7575 46.0625 1.4375 46.0625 C1.53667794 41.59682237 1.60911225 37.13173493 1.65722656 32.6652832 C1.67729203 31.1472659 1.70455134 29.62932541 1.73925781 28.11157227 C1.78800393 25.92444878 1.81051805 23.73835048 1.828125 21.55078125 C1.8595459 19.57911987 1.8595459 19.57911987 1.89160156 17.56762695 C1.36768204 13.52358793 0.14434811 12.01788841 -2.5625 9.0625 C-2.5625 8.4025 -2.5625 7.7425 -2.5625 7.0625 C-3.8825 7.0625 -5.2025 7.0625 -6.5625 7.0625 C-6.54155273 7.97016113 -6.52060547 8.87782227 -6.49902344 9.81298828 C-6.43059067 13.20127642 -6.38057705 16.5888235 -6.34277344 19.97753906 C-6.32273668 21.44022252 -6.29549896 22.90282666 -6.26074219 24.36523438 C-6.21186775 26.4754601 -6.18945341 28.58462136 -6.171875 30.6953125 C-6.15092773 31.96262207 -6.12998047 33.22993164 -6.10839844 34.53564453 C-6.74670973 39.49319557 -8.95801531 42.50977288 -12.5 45.9375 C-15.01190739 47.3076313 -16.74277277 47.29747727 -19.5625 47.0625 C-18.799375 46.485 -18.03625 45.9075 -17.25 45.3125 C-13.7570212 42.38814566 -11.77228151 40.65267199 -11.16186523 36.02563477 C-11.14168335 34.28237915 -11.14168335 34.28237915 -11.12109375 32.50390625 C-11.09466797 31.23095703 -11.06824219 29.95800781 -11.04101562 28.64648438 C-11.0261341 27.30600247 -11.0124736 25.96550648 -11 24.625 C-10.96852114 22.00080808 -10.92285666 19.37788736 -10.87109375 16.75390625 C-10.85876709 15.59060791 -10.84644043 14.42730957 -10.83374023 13.22875977 C-10.56639423 10.1079584 -9.88967715 7.87973664 -8.5625 5.0625 C-9.8825 4.7325 -11.2025 4.4025 -12.5625 4.0625 C-11.99660156 3.85753906 -11.43070313 3.65257812 -10.84765625 3.44140625 C-10.11417969 3.17199219 -9.38070312 2.90257812 -8.625 2.625 C-7.89410156 2.35816406 -7.16320312 2.09132813 -6.41015625 1.81640625 C-2.04654255 0.03590426 -2.04654255 0.03590426 0 0 Z " fill="#222222" transform="translate(61.5625,16.9375)"/>
<path d="M0 0 C4.95 0 9.9 0 15 0 C15 0.33 15 0.66 15 1 C12.69 1 10.38 1 8 1 C8 12.22 8 23.44 8 35 C12.62 35 17.24 35 22 35 C22 35.33 22 35.66 22 36 C14.74 36 7.48 36 0 36 C0 24.12 0 12.24 0 0 Z " fill="#0A0A0A" transform="translate(334,28)"/>
<path d="M0 0 C5.61 0 11.22 0 17 0 C17 0.33 17 0.66 17 1 C14.36 1 11.72 1 9 1 C9 12.55 9 24.1 9 36 C6.36 36 3.72 36 1 36 C0.67 24.12 0.34 12.24 0 0 Z " fill="#0C0C0C" transform="translate(259,28)"/>
<path d="M0 0 C0.495 4.95 0.495 4.95 1 10 C-0.32 10.33 -1.64 10.66 -3 11 C-3 10.01 -3 9.02 -3 8 C-5.97 7.67 -8.94 7.34 -12 7 C-12 17.23 -12 27.46 -12 38 C-11.01 38.33 -10.02 38.66 -9 39 C-12.33469812 41.22313208 -14.06579733 41.42214978 -18 41.75 C-19.5778125 41.89695312 -19.5778125 41.89695312 -21.1875 42.046875 C-24 42 -24 42 -27 40 C-27 39.34 -27 38.68 -27 38 C-26.34 38 -25.68 38 -25 38 C-24.67 27.44 -24.34 16.88 -24 6 C-29.94 6.495 -29.94 6.495 -36 7 C-36.99 9.97 -37.98 12.94 -39 16 C-43 14 -43 14 -43.9375 11.1875 C-44.01144084 7.41651696 -43.29251631 5.94752097 -41 3 C-37.6541659 0.76944393 -36.36742159 0.70964647 -32.44140625 0.5859375 C-31.33216797 0.54726563 -30.22292969 0.50859375 -29.08007812 0.46875 C-27.33887695 0.42234375 -27.33887695 0.42234375 -25.5625 0.375 C-24.43650391 0.33632813 -23.31050781 0.29765625 -22.15039062 0.2578125 C-14.76540907 0.01999826 -7.38839027 -0.045343 0 0 Z M-42 7 C-42.41986946 9.71163778 -42.41986946 9.71163778 -42 12 C-41.01 12.495 -41.01 12.495 -40 13 C-39.690625 12.030625 -39.38125 11.06125 -39.0625 10.0625 C-38 7 -38 7 -37 6 C-32.38 5.67 -27.76 5.34 -23 5 C-23 16.22 -23 27.44 -23 39 C-20.03 39 -17.06 39 -14 39 C-14.33 27.45 -14.66 15.9 -15 4 C-6 5 -6 5 -3 8 C-2.34 8 -1.68 8 -1 8 C-1 6.02 -1 4.04 -1 2 C-6.03530963 1.8761278 -11.06972697 1.78553486 -16.10620117 1.7253418 C-17.81827245 1.70024286 -19.53023704 1.66615571 -21.24194336 1.62280273 C-23.70713645 1.56194261 -26.17090985 1.53374568 -28.63671875 1.51171875 C-29.39836838 1.48591232 -30.16001801 1.4601059 -30.94474792 1.43351746 C-36.37452798 1.43067088 -38.74109229 2.6828139 -42 7 Z " fill="#F1F1F1" transform="translate(254,25)"/>
<path d="M0 0 C1.65 0 3.3 0 5 0 C8 5.625 8 5.625 8 9 C8.66 9 9.32 9 10 9 C10.12375 8.071875 10.2475 7.14375 10.375 6.1875 C11 3 11 3 13 0 C14.65 0.33 16.3 0.66 18 1 C18 6.61 18 12.22 18 18 C12 18 6 18 0 18 C0 12.06 0 6.12 0 0 Z M4 13 C5 15 5 15 5 15 Z " fill="#ACACAC" transform="translate(374,10)"/>
<path d="M0 0 C2.97 0 5.94 0 9 0 C8.97381592 0.81678223 8.94763184 1.63356445 8.9206543 2.47509766 C8.81643787 6.19153454 8.75159201 9.90766361 8.6875 13.625 C8.64560547 14.91019531 8.60371094 16.19539063 8.56054688 17.51953125 C8.19864568 25.15468773 8.19864568 25.15468773 11.39453125 31.7734375 C12.68423828 32.87558594 12.68423828 32.87558594 14 34 C14.66 34.66 15.32 35.32 16 36 C14.43695633 35.99392993 12.8740586 35.94338943 11.3125 35.875 C10.00732422 35.84019531 10.00732422 35.84019531 8.67578125 35.8046875 C5.67199472 34.901359 3.88482225 33.75513409 1.97973633 31.23779297 C-0.34030521 25.93864003 0.21007116 19.81840472 0.1875 14.125 C0.16433469 12.75516889 0.13896512 11.38537319 0.11132812 10.015625 C0.05254585 6.6767916 0.0161977 3.3392669 0 0 Z " fill="#050505" transform="translate(21,28)"/>
<path d="M0 0 C-0.33 0.98097656 -0.66 1.96195313 -1 2.97265625 C-1.38800414 5.72817848 -1.19490569 6.71533153 0.3984375 9.04248047 C2.52074064 11.27435904 4.72117958 13.36567554 7 15.4375 C8.52320565 16.87118164 10.04406018 18.30736549 11.5625 19.74609375 C12.305 20.44331543 13.0475 21.14053711 13.8125 21.85888672 C17.08401416 25.06102725 20.06050114 28.49398599 23 32 C22.505 32.99 22.505 32.99 22 34 C12.41147105 24.58510638 12.41147105 24.58510638 8.625 20 C5.15718832 15.90547537 1.11209422 12.63272066 -3.08935547 9.32421875 C-4.42648117 8.25690516 -5.71780379 7.13271193 -7 6 C-7 5.34 -7 4.68 -7 4 C-6.34 3.67 -5.68 3.34 -5 3 C-8.41021743 3.78697325 -11.68885166 4.87119943 -15 6 C-14.34 6.33 -13.68 6.66 -13 7 C-13.16209961 7.68843994 -13.32419922 8.37687988 -13.49121094 9.08618164 C-14.05503527 12.31518518 -14.12685428 15.3434317 -14.140625 18.62109375 C-14.15996094 19.88630859 -14.17929687 21.15152344 -14.19921875 22.45507812 C-14.23302116 25.10596696 -14.25129818 27.75710007 -14.25390625 30.40820312 C-14.46291261 41.21603179 -14.46291261 41.21603179 -17.21484375 44.88671875 C-20.29276833 47.22214259 -21.51745982 47.67860321 -25.3125 47.375 C-26.19550781 47.32085937 -27.07851563 47.26671875 -27.98828125 47.2109375 C-28.65214844 47.14132813 -29.31601562 47.07171875 -30 47 C-30 46.67 -30 46.34 -30 46 C-29.38511719 45.97421875 -28.77023438 45.9484375 -28.13671875 45.921875 C-27.32847656 45.86515625 -26.52023438 45.8084375 -25.6875 45.75 C-24.88699219 45.70359375 -24.08648437 45.6571875 -23.26171875 45.609375 C-20.1837309 44.78007257 -19.59213253 43.74569023 -18 41 C-17.46292711 37.64894812 -17.46292711 37.64894812 -17.41796875 33.8984375 C-17.3952742 33.22076324 -17.37257965 32.54308899 -17.34919739 31.84487915 C-17.30474248 30.41794357 -17.26734129 28.99077284 -17.23657227 27.56347656 C-17.18749269 25.37467378 -17.11200924 23.18791303 -17.03320312 21 C-16.85196813 15.49917932 -16.85196813 15.49917932 -17 10 C-17.66 9.34 -18.32 8.68 -19 8 C-18.859375 5.9765625 -18.859375 5.9765625 -18 4 C-16.328125 3.0234375 -16.328125 3.0234375 -14.25 2.375 C-13.52683594 2.14039063 -12.80367187 1.90578125 -12.05859375 1.6640625 C-11.37925781 1.44492187 -10.69992188 1.22578125 -10 1 C-9.113125 0.5875 -8.22625 0.175 -7.3125 -0.25 C-4.51077294 -1.15866823 -2.79783666 -0.7993819 0 0 Z " fill="#D8D8D8" transform="translate(66,15)"/>
<path d="M0 0 C7.59 0 15.18 0 23 0 C23 3.3 23 6.6 23 10 C22.01 10 21.02 10 20 10 C19.6596875 8.7934375 19.6596875 8.7934375 19.3125 7.5625 C18.879375 6.716875 18.44625 5.87125 18 5 C15.525 4.505 15.525 4.505 13 4 C13 8.95 13 13.9 13 19 C12.67 19 12.34 19 12 19 C12 13.72 12 8.44 12 3 C9.36 2.67 6.72 2.34 4 2 C4.00523682 3.04978027 4.01047363 4.09956055 4.01586914 5.18115234 C4.03394239 9.06867625 4.04544054 12.95619644 4.05493164 16.84375 C4.05996653 18.52767562 4.06679481 20.21159686 4.07543945 21.89550781 C4.08754196 24.31316203 4.09323668 26.73075856 4.09765625 29.1484375 C4.10281754 29.9036972 4.10797882 30.65895691 4.11329651 31.43710327 C4.11387171 36.77225659 4.11387171 36.77225659 3 39 C12.24 39 21.48 39 31 39 C31 39.33 31 39.66 31 40 C26.58404696 40.2258868 22.16731435 40.42767834 17.75 40.625 C16.49574219 40.68945312 15.24148438 40.75390625 13.94921875 40.8203125 C12.14130859 40.89765625 12.14130859 40.89765625 10.296875 40.9765625 C9.18666992 41.02893066 8.07646484 41.08129883 6.93261719 41.13525391 C4.01111303 41.00051254 2.45313506 40.52929484 0 39 C0 38.34 0 37.68 0 37 C0.66 37 1.32 37 2 37 C1.91621094 36.24074219 1.83242188 35.48148438 1.74609375 34.69921875 C1.64425781 33.70535156 1.54242188 32.71148437 1.4375 31.6875 C1.33308594 30.70136719 1.22867187 29.71523438 1.12109375 28.69921875 C1 26 1 26 2 23 C2.12234153 20.15484822 2.18512524 17.34496787 2.1875 14.5 C2.19974609 13.72785156 2.21199219 12.95570312 2.22460938 12.16015625 C2.23476991 8.2517352 2.21572048 6.32358072 0 3 C0 2.01 0 1.02 0 0 Z " fill="#929292" transform="translate(330,26)"/>
<path d="M0 0 C4.02058602 -0.11686443 8.04073082 -0.18747388 12.0625 -0.25 C13.19623047 -0.28351562 14.32996094 -0.31703125 15.49804688 -0.3515625 C22.25445017 -0.43035438 26.54276215 -0.11592236 32 4 C34.6524593 7.3444052 34.42794993 10.8631507 34 15 C32.72245446 17.0360882 31.39300182 19.04109119 30 21 C30 22.32 30 23.64 30 25 C29.67 25.66 29.34 26.32 29 27 C27.35 25.35 25.7 23.7 24 22 C25.4540625 21.1028125 25.4540625 21.1028125 26.9375 20.1875 C30.23052042 18.28872491 30.23052042 18.28872491 31 15 C31.37458176 10.10786701 31.37458176 10.10786701 29.6875 5.625 C26.83150819 2.87478566 23.89490783 2.84402639 20.11328125 2.68359375 C18.845448 2.62643188 18.845448 2.62643188 17.55200195 2.56811523 C16.48296631 2.52501221 15.41393066 2.48190918 14.3125 2.4375 C10.909375 2.293125 7.50625 2.14875 4 2 C4 13.55 4 25.1 4 37 C3.01 37.495 3.01 37.495 2 38 C8.93 38.495 8.93 38.495 16 39 C15.67 39.66 15.34 40.32 15 41 C12.87506859 41.02693575 10.75004088 41.04636628 8.625 41.0625 C7.44164062 41.07410156 6.25828125 41.08570313 5.0390625 41.09765625 C2 41 2 41 0 40 C0.875 36.125 0.875 36.125 2 35 C2.0883967 32.6243148 2.11530305 30.27791326 2.09765625 27.90234375 C2.0962413 27.19348526 2.09482635 26.48462677 2.09336853 25.75428772 C2.08775443 23.48198288 2.07519963 21.20977525 2.0625 18.9375 C2.05748681 17.40039204 2.05292359 15.86328255 2.04882812 14.32617188 C2.03778042 10.55074358 2.02050641 6.77538829 2 3 C1.34 3 0.68 3 0 3 C0 2.01 0 1.02 0 0 Z " fill="#FAFAFA" transform="translate(255,26)"/>
<path d="M0 0 C3.875 1.875 3.875 1.875 5 3 C5.08847743 5.52094076 5.11527301 8.01430893 5.09765625 10.53515625 C5.0962413 11.28840683 5.09482635 12.04165741 5.09336853 12.81773376 C5.08775376 15.2326956 5.07519883 17.64756601 5.0625 20.0625 C5.0574869 21.69596221 5.05292366 23.32942586 5.04882812 24.96289062 C5.03777954 28.97529585 5.02050506 32.98763241 5 37 C7.64 36.67 10.28 36.34 13 36 C13 28.41 13 20.82 13 13 C13.66 13 14.32 13 15 13 C16.41015625 14.43359375 16.41015625 14.43359375 18.0625 16.4375 C20.75174994 19.60757217 23.53513377 22.58581525 26.5 25.5 C32.40172161 31.33146302 37.72419581 37.60508583 43 44 C39.08790692 42.40584497 36.62781914 39.86106668 33.6875 36.875 C33.2032959 36.38435059 32.7190918 35.89370117 32.22021484 35.38818359 C28.84765324 31.94374588 25.63328184 28.39132524 22.50390625 24.7265625 C20.44501641 22.36285001 18.24967462 20.18150266 16 18 C14.7937748 21.61867559 14.89183082 24.92506251 14.9375 28.6875 C14.94201172 29.38939453 14.94652344 30.09128906 14.95117188 30.81445312 C14.96293073 32.54300538 14.98086546 34.27151365 15 36 C15.99 36.33 16.98 36.66 18 37 C14.63000798 39.24666134 13.43894538 39.2457371 9.5 39.1875 C8.5409375 39.18105469 7.581875 39.17460938 6.59375 39.16796875 C4 39 4 39 1 38 C1 37.34 1 36.68 1 36 C1.66 36 2.32 36 3 36 C3.07427649 31.51598515 3.12866111 27.03229826 3.16479492 22.54785156 C3.17986151 21.0230485 3.20031876 19.49828864 3.22631836 17.97363281 C3.26279706 15.77918834 3.27974714 13.58531784 3.29296875 11.390625 C3.3086792 10.07094727 3.32438965 8.75126953 3.34057617 7.39160156 C2.9866721 3.86727513 2.41890223 2.51097117 0 0 Z " fill="#C4C4C4" transform="translate(60,27)"/>
<path d="M0 0 C0 0.99 0 1.98 0 3 C-1.35546875 4.21875 -1.35546875 4.21875 -3.1875 5.5 C-8.71649464 9.95235471 -10.81095379 16.43286137 -13 23 C-13.07973476 24.33525717 -13.10771338 25.67412083 -13.09765625 27.01171875 C-13.09282227 28.14770508 -13.09282227 28.14770508 -13.08789062 29.30664062 C-13.07951172 30.09232422 -13.07113281 30.87800781 -13.0625 31.6875 C-13.05798828 32.48478516 -13.05347656 33.28207031 -13.04882812 34.10351562 C-13.0370585 36.06904257 -13.01912348 38.03453085 -13 40 C-12.34 40 -11.68 40 -11 40 C-11 40.66 -11 41.32 -11 42 C-12.65 41.34 -14.3 40.68 -16 40 C-16.51805739 27.72491794 -16.74152101 17.20885784 -8.3125 7.375 C-7.22497047 6.23390906 -6.124918 5.10425021 -5 4 C-4.67 3.67 -4.34 3.34 -4 3 C-6.79589673 3.36334341 -7.86598708 3.86061526 -9.8515625 5.92578125 C-10.43679687 6.71339844 -11.02203125 7.50101563 -11.625 8.3125 C-12.21539062 9.09238281 -12.80578125 9.87226562 -13.4140625 10.67578125 C-14.81849473 12.73400089 -15.95640899 14.74233034 -17 17 C-17.66 17 -18.32 17 -19 17 C-20.26171875 15.20703125 -20.26171875 15.20703125 -21.6875 12.8125 C-24.5885361 8.27112497 -27.44516885 5.82399531 -32 3 C-31.01 2.67 -30.02 2.34 -29 2 C-27.09765625 3.328125 -27.09765625 3.328125 -25.0625 5.25 C-22.46703165 7.67043676 -19.87531459 9.91587936 -17 12 C-16.54109375 11.38511719 -16.0821875 10.77023438 -15.609375 10.13671875 C-14.68898437 8.92435547 -14.68898437 8.92435547 -13.75 7.6875 C-13.14671875 6.88699219 -12.5434375 6.08648437 -11.921875 5.26171875 C-8.14880117 0.82145504 -5.87656898 -0.40067516 0 0 Z " fill="#D3D3D3" transform="translate(205,23)"/>
<path d="M0 0 C0.72680969 0.00424484 1.45361938 0.00848969 2.20245361 0.01286316 C4.51556004 0.02960745 6.82778355 0.0672499 9.140625 0.10546875 C10.71222697 0.12052117 12.28384264 0.1342086 13.85546875 0.14648438 C17.70085915 0.1794968 21.54559256 0.23124819 25.390625 0.29296875 C25.390625 0.62296875 25.390625 0.95296875 25.390625 1.29296875 C16.975625 1.78796875 16.975625 1.78796875 8.390625 2.29296875 C8.390625 13.18296875 8.390625 24.07296875 8.390625 35.29296875 C7.730625 35.29296875 7.070625 35.29296875 6.390625 35.29296875 C6.390625 24.73296875 6.390625 14.17296875 6.390625 3.29296875 C-6.4254621 2.67243549 -6.4254621 2.67243549 -9.609375 6.29296875 C-10.25705293 8.86358186 -10.25705293 8.86358186 -10.609375 11.29296875 C-11.269375 10.96296875 -11.929375 10.63296875 -12.609375 10.29296875 C-12.12334055 3.85301232 -12.12334055 3.85301232 -10.03808594 1.58081055 C-6.7096582 -0.18411268 -3.67099507 -0.0810639 0 0 Z " fill="#383838" transform="translate(224.609375,26.70703125)"/>
<path d="M0 0 C0.66 0 1.32 0 2 0 C2.0246519 4.82380802 2.04283693 9.64757967 2.05493164 14.47143555 C2.05997174 16.11369464 2.06680378 17.75594923 2.07543945 19.39819336 C2.08751926 21.75375479 2.09323139 24.10925709 2.09765625 26.46484375 C2.10281754 27.20339096 2.10797882 27.94193817 2.11329651 28.7028656 C2.1134925 30.46898088 2.06194719 32.23497146 2 34 C1.505 34.495 1.505 34.495 1 35 C10.57 35.33 20.14 35.66 30 36 C30 36.33 30 36.66 30 37 C29.30849854 37.05534912 28.61699707 37.11069824 27.90454102 37.16772461 C24.79012786 37.41963531 21.67632905 37.67847351 18.5625 37.9375 C17.47388672 38.02451172 16.38527344 38.11152344 15.26367188 38.20117188 C13.71196289 38.33168945 13.71196289 38.33168945 12.12890625 38.46484375 C11.17056885 38.543396 10.21223145 38.62194824 9.22485352 38.70288086 C7.03090111 38.76667071 7.03090111 38.76667071 6 40 C10.95 41.98 10.95 41.98 16 44 C16 44.66 16 45.32 16 46 C15.34 46 14.68 46 14 46 C14 45.34 14 44.68 14 44 C13.195625 44.12375 12.39125 44.2475 11.5625 44.375 C3.5772989 43.53445252 -1.88867002 37.46814106 -6.78515625 31.5390625 C-7.18605469 31.03117187 -7.58695312 30.52328125 -8 30 C-7.67 29.34 -7.34 28.68 -7 28 C-5.68 29.65 -4.36 31.3 -3 33 C-1.515 32.505 -1.515 32.505 0 32 C0 21.44 0 10.88 0 0 Z " fill="#E8E8E8" transform="translate(296,29)"/>
<path d="M0 0 C4.29 0 8.58 0 13 0 C13.33 1.65 13.66 3.3 14 5 C12.35 5 10.7 5 9 5 C9 9.29 9 13.58 9 18 C7.35 18 5.7 18 4 18 C4 13.71 4 9.42 4 5 C2.35 4.67 0.7 4.34 -1 4 C-0.67 2.68 -0.34 1.36 0 0 Z " fill="#C0C0C0" transform="translate(359,10)"/>
<path d="M0 0 C3.96 0 7.92 0 12 0 C12.02468857 4.5206665 12.04285449 9.0412939 12.05493164 13.56201172 C12.05996552 15.10043013 12.06679308 16.63884375 12.07543945 18.17724609 C12.08754639 20.38640526 12.09323769 22.59550126 12.09765625 24.8046875 C12.10281754 25.49432587 12.10797882 26.18396423 12.11329651 26.89450073 C12.11387171 31.77225659 12.11387171 31.77225659 11 34 C14.63 34 18.26 34 22 34 C21.505 33.505 21.505 33.505 21 33 C20.91156207 30.55169574 20.88471248 28.13179401 20.90234375 25.68359375 C20.9037587 24.95253922 20.90517365 24.22148468 20.90663147 23.46827698 C20.91224592 21.12464368 20.92480078 18.78110461 20.9375 16.4375 C20.94251314 14.85221492 20.94707637 13.26692834 20.95117188 11.68164062 C20.96222003 7.7877239 20.97949428 3.89387795 21 0 C22.45792884 -0.05399736 23.91642712 -0.09279177 25.375 -0.125 C26.18710938 -0.14820312 26.99921875 -0.17140625 27.8359375 -0.1953125 C30 0 30 0 32 2 C32 2.99 32 3.98 32 5 C32.66 5.33 33.32 5.66 34 6 C32.125 5.6875 32.125 5.6875 30 5 C29.34 4.01 28.68 3.02 28 2 C25.41619823 1.74969023 25.41619823 1.74969023 23 2 C22.95052302 5.93265896 22.91424422 9.86519714 22.89013672 13.7980957 C22.87514505 15.79319618 22.84973269 17.78820946 22.82421875 19.78320312 C22.81777344 21.03681641 22.81132812 22.29042969 22.8046875 23.58203125 C22.79421387 24.73936768 22.78374023 25.8967041 22.77294922 27.08911133 C22.77680137 30.19421173 22.77680137 30.19421173 25 33 C25 33.99 25 34.98 25 36 C21.05352382 36.98844951 17.72607036 36.96191905 13.6875 36.5625 C12.61886719 36.46066406 11.55023438 36.35882813 10.44921875 36.25390625 C9.64097656 36.17011719 8.83273438 36.08632812 8 36 C8.875 32.125 8.875 32.125 10 31 C10.08775605 28.85441173 10.10695219 26.70595579 10.09765625 24.55859375 C10.09443359 23.25341797 10.09121094 21.94824219 10.08789062 20.60351562 C10.07953401 19.2148431 10.07106905 17.82617123 10.0625 16.4375 C10.05748666 15.04492344 10.05292347 13.65234519 10.04882812 12.25976562 C10.03699434 8.8398013 10.0205088 5.41992156 10 2 C6.7 1.67 3.4 1.34 0 1 C0 0.67 0 0.34 0 0 Z " fill="#EBEBEB" transform="translate(133,30)"/>
<path d="M0 0 C1.39456452 0.00667256 2.78911118 0.01863093 4.18359375 0.03515625 C4.89451172 0.03966797 5.60542969 0.04417969 6.33789062 0.04882812 C8.09899388 0.06064761 9.86005411 0.07858362 11.62109375 0.09765625 C11.38338257 0.90638184 11.38338257 0.90638184 11.14086914 1.73144531 C10.53200352 4.50322814 10.40599059 7.12054476 10.3046875 9.95703125 C10.26279297 11.07207031 10.22089844 12.18710937 10.17773438 13.3359375 C10.11875977 15.07423828 10.11875977 15.07423828 10.05859375 16.84765625 C10.01541016 18.02199219 9.97222656 19.19632813 9.92773438 20.40625 C9.82174581 23.30327076 9.71967737 26.2003756 9.62109375 29.09765625 C9.29109375 29.09765625 8.96109375 29.09765625 8.62109375 29.09765625 C8.62109375 20.18765625 8.62109375 11.27765625 8.62109375 2.09765625 C5.98109375 2.42765625 3.34109375 2.75765625 0.62109375 3.09765625 C0.67307054 7.64024866 0.76817835 12.18095482 0.87109375 16.72265625 C0.88527344 18.00785156 0.89945313 19.29304688 0.9140625 20.6171875 C1.0328897 29.67705939 1.0328897 29.67705939 5.62109375 37.09765625 C1.74828934 35.62866148 0.45247419 33.76009567 -1.37890625 30.09765625 C-1.77954102 27.29858398 -1.77954102 27.29858398 -1.8203125 24.28125 C-1.84673828 23.18748047 -1.87316406 22.09371094 -1.90039062 20.96679688 C-1.91392578 19.83435547 -1.92746094 18.70191406 -1.94140625 17.53515625 C-1.97588674 15.28370816 -2.0185169 13.0323663 -2.0703125 10.78125 C-2.08880249 9.28936157 -2.08880249 9.28936157 -2.10766602 7.76733398 C-2.38191418 5.06805079 -3.00060854 3.40922999 -4.37890625 1.09765625 C-3.37890625 0.09765625 -3.37890625 0.09765625 0 0 Z " fill="#B8B8B8" transform="translate(21.37890625,25.90234375)"/>
<path d="M0 0 C2.31 0.33 4.62 0.66 7 1 C7.33 2.32 7.66 3.64 8 5 C7.34 4.67 6.68 4.34 6 4 C6 3.34 6 2.68 6 2 C4.68 2 3.36 2 2 2 C1.9729957 3.45823212 1.95360213 4.91660675 1.9375 6.375 C1.92589844 7.18710937 1.91429687 7.99921875 1.90234375 8.8359375 C1.85533666 11.04937142 1.85533666 11.04937142 3 13 C5.31 13 7.62 13 10 13 C10.66 11.68 11.32 10.36 12 9 C12.66 9 13.32 9 14 9 C15.32229189 11.64458379 15.09677194 13.67761301 15.0625 16.625 C15.05347656 17.62789062 15.04445313 18.63078125 15.03515625 19.6640625 C15.02355469 20.43492188 15.01195312 21.20578125 15 22 C14.01 22.33 13.02 22.66 12 23 C11.34 22.01 10.68 21.02 10 20 C8.03638136 19.42251197 8.03638136 19.42251197 5.875 19.3125 C4.59625 19.209375 3.3175 19.10625 2 19 C1.67 22.96 1.34 26.92 1 31 C1.90363281 30.9278125 2.80726563 30.855625 3.73828125 30.78125 C4.91777344 30.6884375 6.09726562 30.595625 7.3125 30.5 C8.48425781 30.4071875 9.65601563 30.314375 10.86328125 30.21875 C12.905194 30.07635011 14.9531279 30 17 30 C15 32 15 32 11.5234375 32.1953125 C10.14049032 32.18201493 8.75761346 32.15816232 7.375 32.125 C6.66859375 32.11597656 5.9621875 32.10695312 5.234375 32.09765625 C3.48943902 32.07407603 1.74467705 32.03820461 0 32 C0 27.38 0 22.76 0 18 C8.49609375 17.90234375 8.49609375 17.90234375 11 18 C11.33 18.33 11.66 18.66 12 19 C12 17.35 12 15.7 12 14 C11.67 14.33 11.34 14.66 11 15 C7.3308423 15.14310287 3.67284559 15.04221662 0 15 C0 10.05 0 5.1 0 0 Z " fill="#D4D4D4" transform="translate(307,30)"/>
<path d="M0 0 C1.45662587 -0.05401162 2.91382259 -0.09279829 4.37109375 -0.125 C5.18247803 -0.14820312 5.9938623 -0.17140625 6.82983398 -0.1953125 C9 0 9 0 11.0625 2 C11.5265625 2.99 11.5265625 2.99 12 4 C9.03 3.67 6.06 3.34 3 3 C3 13.23 3 23.46 3 34 C3.99 34.33 4.98 34.66 6 35 C2.59568053 37.26954631 0.83475798 37.36549949 -3.1875 37.625 C-4.27417969 37.69976562 -5.36085937 37.77453125 -6.48046875 37.8515625 C-7.31191406 37.90054688 -8.14335937 37.94953125 -9 38 C-9 36.68 -9 35.36 -9 34 C-5.7 34.33 -2.4 34.66 1 35 C0.67 34.34 0.34 33.68 0 33 C-0.08649451 30.51900266 -0.11565054 28.06655072 -0.09765625 25.5859375 C-0.0962413 24.85629791 -0.09482635 24.12665833 -0.09336853 23.37490845 C-0.08776531 21.04156415 -0.07521235 18.70831536 -0.0625 16.375 C-0.05748541 14.79427222 -0.05292243 13.21354293 -0.04882812 11.6328125 C-0.03779484 7.75517146 -0.02052811 3.87760193 0 0 Z " fill="#A9A9A9" transform="translate(239,29)"/>
<path d="M0 0 C3.63 0 7.26 0 11 0 C11 0.33 11 0.66 11 1 C7.7 1 4.4 1 1 1 C1 5.62 1 10.24 1 15 C5.62 15 10.24 15 15 15 C15.66 13.68 16.32 12.36 17 11 C17.98879205 9.32665961 18.98648336 7.65848177 20 6 C20.99 6.33 21.98 6.66 23 7 C22.34 10.63 21.68 14.26 21 18 C11.1 18 1.2 18 -9 18 C-8.67 17.34 -8.34 16.68 -8 16 C-5.36 16 -2.72 16 0 16 C0 10.72 0 5.44 0 0 Z " fill="#747474" transform="translate(342,47)"/>
<path d="M0 0 C0.042721 1.66611905 0.04063832 3.33382885 0 5 C-0.33 5.33 -0.66 5.66 -1 6 C-1.04092937 8.33297433 -1.04241723 10.66705225 -1 13 C-0.34 10.69 0.32 8.38 1 6 C2.32 5.67 3.64 5.34 5 5 C4.60446947 6.6510403 4.18286103 8.2958515 3.75 9.9375 C3.51796875 10.85402344 3.2859375 11.77054688 3.046875 12.71484375 C2.70140625 13.46894531 2.3559375 14.22304688 2 15 C-0.06542969 15.64282227 -0.06542969 15.64282227 -2 16 C-2.05410136 19.06273831 -2.09372225 22.12451452 -2.125 25.1875 C-2.14175781 26.05181641 -2.15851563 26.91613281 -2.17578125 27.80664062 C-2.21038233 32.32208103 -2.15567916 35.90081483 0 40 C-1.32 39.34 -2.64 38.68 -4 38 C-4 26.45 -4 14.9 -4 3 C-9.61 3 -15.22 3 -21 3 C-21 2.67 -21 2.34 -21 2 C-13.94546999 0.79556805 -7.16562789 -0.28100502 0 0 Z " fill="#CDCDCD" transform="translate(128,25)"/>
<path d="M0 0 C1.98 0 3.96 0 6 0 C6 0.33 6 0.66 6 1 C4.35 1 2.7 1 1 1 C1 5.95 1 10.9 1 16 C2.77375 15.855625 4.5475 15.71125 6.375 15.5625 C7.37273437 15.48128906 8.37046875 15.40007813 9.3984375 15.31640625 C11.97927613 15.15034374 11.97927613 15.15034374 14 14 C14 16.31 14 18.62 14 21 C13.34 20.67 12.68 20.34 12 20 C10.12943209 19.7724985 8.25314042 19.59037189 6.375 19.4375 C4.60125 19.293125 2.8275 19.14875 1 19 C1 23.62 1 28.24 1 33 C5.29 33 9.58 33 14 33 C14 33.33 14 33.66 14 34 C9.38 34 4.76 34 0 34 C0 22.78 0 11.56 0 0 Z " fill="#4A4A4A" transform="translate(306,29)"/>
<path d="M0 0 C2.24993359 -0.02707139 4.49996095 -0.04642829 6.75 -0.0625 C8.00296875 -0.07410156 9.2559375 -0.08570312 10.546875 -0.09765625 C13.34446499 -0.01853889 15.35153826 0.29374354 18 1 C19.74886981 1.06624507 21.50002748 1.08552595 23.25 1.0625 C24.14203125 1.05347656 25.0340625 1.04445313 25.953125 1.03515625 C26.62859375 1.02355469 27.3040625 1.01195313 28 1 C28 1.33 28 1.66 28 2 C27.38511719 2.04898437 26.77023438 2.09796875 26.13671875 2.1484375 C25.32847656 2.22320313 24.52023438 2.29796875 23.6875 2.375 C22.48673828 2.47941406 22.48673828 2.47941406 21.26171875 2.5859375 C18.72775559 2.89564426 18.72775559 2.89564426 16 5 C15.34 4.67 14.68 4.34 14 4 C14 3.34 14 2.68 14 2 C10.04 2 6.08 2 2 2 C2 2.66 2 3.32 2 4 C2.66 4 3.32 4 4 4 C4 11.26 4 18.52 4 26 C3.01 25.67 2.02 25.34 1 25 C1.33 18.4 1.66 11.8 2 5 C1.01 4.67 0.02 4.34 -1 4 C-0.67 2.68 -0.34 1.36 0 0 Z " fill="#E5E5E5" transform="translate(88,25)"/>
<path d="M0 0 C0.99 0 1.98 0 3 0 C3.02468447 4.80549747 3.04285255 9.61095818 3.05493164 14.41650391 C3.05996621 16.05192711 3.06679427 17.6873458 3.07543945 19.32275391 C3.08754335 21.67090975 3.093237 24.01900619 3.09765625 26.3671875 C3.10281754 27.10057343 3.10797882 27.83395935 3.11329651 28.58956909 C3.11387171 33.77225659 3.11387171 33.77225659 2 36 C11.24 36 20.48 36 30 36 C30 36.33 30 36.66 30 37 C25.58404696 37.2258868 21.16731435 37.42767834 16.75 37.625 C15.49574219 37.68945312 14.24148438 37.75390625 12.94921875 37.8203125 C11.14130859 37.89765625 11.14130859 37.89765625 9.296875 37.9765625 C8.18666992 38.02893066 7.07646484 38.08129883 5.93261719 38.13525391 C3.01111303 38.00051254 1.45313506 37.52929484 -1 36 C-1 35.34 -1 34.68 -1 34 C-0.34 34 0.32 34 1 34 C0.91621094 33.24074219 0.83242188 32.48148438 0.74609375 31.69921875 C0.59333984 30.20841797 0.59333984 30.20841797 0.4375 28.6875 C0.33308594 27.70136719 0.22867187 26.71523438 0.12109375 25.69921875 C0 23 0 23 1 20 C1.09668595 17.15629549 1.13923837 14.3429273 1.125 11.5 C1.12886719 10.72785156 1.13273437 9.95570312 1.13671875 9.16015625 C1.13099051 5.85496263 1.05207501 3.15622502 0 0 Z " fill="#F1F1F1" transform="translate(331,29)"/>
<path d="M0 0 C1.65 0.33 3.3 0.66 5 1 C5 6.61 5 12.22 5 18 C3.68 18 2.36 18 1 18 C0.67 15.36 0.34 12.72 0 10 C-0.99 10.495 -0.99 10.495 -2 11 C-1.85957123 9.35369672 -1.71250671 7.70795821 -1.5625 6.0625 C-1.48128906 5.14597656 -1.40007812 4.22945312 -1.31640625 3.28515625 C-1 1 -1 1 0 0 Z " fill="#7D7D7D" transform="translate(387,10)"/>
<path d="M0 0 C4.06225821 -0.11638426 8.1240863 -0.18731373 12.1875 -0.25 C13.33798828 -0.28351562 14.48847656 -0.31703125 15.67382812 -0.3515625 C16.78564453 -0.36445313 17.89746094 -0.37734375 19.04296875 -0.390625 C20.06414795 -0.41157227 21.08532715 -0.43251953 22.13745117 -0.45410156 C25.77130822 0.12235678 27.40586556 1.43796331 30 4 C31.20643566 7.61930698 31.32268559 10.19231005 31 14 C29.72245446 16.0360882 28.39300182 18.04109119 27 20 C27 21.32 27 22.64 27 24 C26.67 24.66 26.34 25.32 26 26 C24.35 24.35 22.7 22.7 21 21 C22.4540625 20.1028125 22.4540625 20.1028125 23.9375 19.1875 C27.23052042 17.28872491 27.23052042 17.28872491 28 14 C28.37458176 9.10786701 28.37458176 9.10786701 26.6875 4.625 C23.72294511 1.77024344 20.80247732 1.87975447 16.89453125 1.90234375 C15.42016602 1.90717773 15.42016602 1.90717773 13.91601562 1.91210938 C12.37977539 1.92467773 12.37977539 1.92467773 10.8125 1.9375 C9.77673828 1.94201172 8.74097656 1.94652344 7.67382812 1.95117188 C5.11582734 1.9629599 2.55794267 1.97941485 0 2 C0 1.34 0 0.68 0 0 Z " fill="#9C9C9C" transform="translate(258,27)"/>
<path d="M0 0 C1.32 0 2.64 0 4 0 C5.32 3.3 6.64 6.6 8 10 C8.66 10 9.32 10 10 10 C9.67 11.65 9.34 13.3 9 15 C7.68 14.67 6.36 14.34 5 14 C4.34 11.69 3.68 9.38 3 7 C2.67 9.64 2.34 12.28 2 15 C1.34 15 0.68 15 0 15 C0 10.05 0 5.1 0 0 Z " fill="#161616" transform="translate(375,12)"/>
<path d="M0 0 C1.45792884 -0.05399736 2.91642712 -0.09279177 4.375 -0.125 C5.18710938 -0.14820312 5.99921875 -0.17140625 6.8359375 -0.1953125 C9 0 9 0 11 2 C10.37351563 1.97679688 9.74703125 1.95359375 9.1015625 1.9296875 C8.28429687 1.91164063 7.46703125 1.89359375 6.625 1.875 C5.40683594 1.84019531 5.40683594 1.84019531 4.1640625 1.8046875 C1.78657757 1.78629949 1.78657757 1.78629949 0 4 C-3.10107422 4.30297852 -3.10107422 4.30297852 -7.0546875 4.37890625 C-8.10162277 4.40439796 -8.10162277 4.40439796 -9.16970825 4.43040466 C-11.40471298 4.4835938 -13.63970064 4.52382783 -15.875 4.5625 C-18.10305935 4.60652233 -20.3309794 4.65336157 -22.55886841 4.70530701 C-24.58582767 4.75175542 -26.61298506 4.78930197 -28.64013672 4.82641602 C-31.299234 4.96379562 -33.4793903 5.20807055 -36 6 C-35.67 5.01 -35.34 4.02 -35 3 C-27.0800587 2.12504821 -19.2765687 1.87409958 -11.3125 1.9375 C-9.66991211 1.94426758 -9.66991211 1.94426758 -7.99414062 1.95117188 C-5.32936691 1.96280844 -2.66471483 1.97915436 0 2 C0 1.34 0 0.68 0 0 Z " fill="#E8E8E8" transform="translate(163,23)"/>
<path d="M0 0 C0.85566884 2.39479644 1.16756187 3.57309613 0.22265625 5.98046875 C-0.16019531 6.70878906 -0.54304687 7.43710937 -0.9375 8.1875 C-4.13232614 15.48839134 -3.32565715 23.20232039 -3 31 C-2.34 31 -1.68 31 -1 31 C-1 31.66 -1 32.32 -1 33 C-2.65 32.34 -4.3 31.68 -6 31 C-6.48003544 19.62582692 -6.5629936 9.8444904 0 0 Z " fill="#D0D0D0" transform="translate(195,32)"/>
<path d="M0 0 C0.7031987 0.00565979 1.4063974 0.01131958 2.13090515 0.01715088 C4.36272123 0.03942731 6.59289336 0.08960127 8.82421875 0.140625 C10.34307566 0.16070157 11.86195791 0.17895032 13.38085938 0.1953125 C17.0916742 0.23926143 20.80153585 0.30822579 24.51171875 0.390625 C24.51171875 0.720625 24.51171875 1.050625 24.51171875 1.390625 C18.57171875 1.720625 12.63171875 2.050625 6.51171875 2.390625 C6.51171875 2.720625 6.51171875 3.050625 6.51171875 3.390625 C5.52429688 3.45121094 4.536875 3.51179688 3.51953125 3.57421875 C2.23820313 3.65800781 0.956875 3.74179687 -0.36328125 3.828125 C-1.63945312 3.90933594 -2.915625 3.99054687 -4.23046875 4.07421875 C-7.37128277 4.18268527 -7.37128277 4.18268527 -9.48828125 5.390625 C-9.89557353 7.71219097 -10.23266802 10.0475037 -10.48828125 12.390625 C-11.14828125 12.060625 -11.80828125 11.730625 -12.48828125 11.390625 C-12.80078125 8.140625 -12.80078125 8.140625 -12.48828125 4.390625 C-8.59516286 0.19682426 -5.58043711 -0.08893127 0 0 Z " fill="#585858" transform="translate(138.48828125,26.609375)"/>
<path d="M0 0 C0.72680969 0.00424484 1.45361938 0.00848969 2.20245361 0.01286316 C4.51556004 0.02960745 6.82778355 0.0672499 9.140625 0.10546875 C10.71222697 0.12052117 12.28384264 0.1342086 13.85546875 0.14648438 C17.70085915 0.1794968 21.54559256 0.23124819 25.390625 0.29296875 C25.390625 0.62296875 25.390625 0.95296875 25.390625 1.29296875 C19.120625 1.62296875 12.850625 1.95296875 6.390625 2.29296875 C6.390625 2.62296875 6.390625 2.95296875 6.390625 3.29296875 C4.90949219 3.36644531 4.90949219 3.36644531 3.3984375 3.44140625 C2.11710938 3.51617188 0.83578125 3.5909375 -0.484375 3.66796875 C-2.39863281 3.77238281 -2.39863281 3.77238281 -4.3515625 3.87890625 C-7.68999199 3.96537981 -7.68999199 3.96537981 -9.609375 6.29296875 C-10.25705293 8.86358186 -10.25705293 8.86358186 -10.609375 11.29296875 C-11.269375 10.96296875 -11.929375 10.63296875 -12.609375 10.29296875 C-12.12334055 3.85301232 -12.12334055 3.85301232 -10.03808594 1.58081055 C-6.7096582 -0.18411268 -3.67099507 -0.0810639 0 0 Z " fill="#595959" transform="translate(224.609375,26.70703125)"/>
<path d="M0 0 C0.99 0 1.98 0 3 0 C3.02465288 4.68139254 3.04283739 9.36274759 3.05493164 14.04418945 C3.05997157 15.63794614 3.0668035 17.23169819 3.07543945 18.82543945 C3.08751999 21.11150253 3.09323155 23.39750467 3.09765625 25.68359375 C3.10281754 26.40026718 3.10797882 27.11694061 3.11329651 27.85533142 C3.11349263 29.57063672 3.06192007 31.28581266 3 33 C2.505 33.495 2.505 33.495 2 34 C6.29 34.33 10.58 34.66 15 35 C14.67 35.66 14.34 36.32 14 37 C8.72 37 3.44 37 -2 37 C-1.34 35.35 -0.68 33.7 0 32 C0.66 32 1.32 32 2 32 C2 21.77 2 11.54 2 1 C1.34 0.67 0.68 0.34 0 0 Z " fill="#F8F8F8" transform="translate(112,30)"/>
<path d="M0 0 C0.66 0 1.32 0 2 0 C4.10894177 2.80307189 6.06932953 5.66754471 8.015625 8.58398438 C11.88387774 14.2153584 16.14912846 19.13253425 23 21 C26.35505526 21.24049932 26.35505526 21.24049932 29.8125 21.125 C30.97394531 21.10695313 32.13539063 21.08890625 33.33203125 21.0703125 C34.65267578 21.03550781 34.65267578 21.03550781 36 21 C35.67 21.66 35.34 22.32 35 23 C27.10287917 23.43337858 20.6191868 23.70310641 14 19 C13.20207031 18.44183594 12.40414063 17.88367188 11.58203125 17.30859375 C8.41164041 14.47394778 6.40165825 11.4118887 4.1875 7.8125 C3.78080078 7.17119141 3.37410156 6.52988281 2.95507812 5.86914062 C0 1.16584821 0 1.16584821 0 0 Z " fill="#D5D5D5" transform="translate(274,54)"/>
<path d="M0 0 C10.81796108 8.93657654 20.09294971 19.2035754 29 30 C25.08790692 28.40584497 22.62781914 25.86106668 19.6875 22.875 C19.2032959 22.38435059 18.7190918 21.89370117 18.22021484 21.38818359 C14.84765324 17.94374588 11.63328184 14.39132524 8.50390625 10.7265625 C6.44501641 8.36285001 4.24967462 6.18150266 2 4 C1.34 4.99 0.68 5.98 0 7 C0 4.69 0 2.38 0 0 Z " fill="#CBCBCB" transform="translate(74,41)"/>
<path d="M0 0 C1.32 0 2.64 0 4 0 C4.33 0.99 4.66 1.98 5 3 C4.34 3 3.68 3 3 3 C2.03044291 6.26541793 1.86273944 9.24919402 1.82421875 12.6484375 C1.80037109 13.73640625 1.77652344 14.824375 1.75195312 15.9453125 C1.70913473 18.22377031 1.67780269 20.50247418 1.65820312 22.78125 C1.49725192 29.11449276 1.31450857 33.21145789 -3 38 C-5.25 39.875 -5.25 39.875 -7 41 C-7.66 40.67 -8.32 40.34 -9 40 C-7.50260417 38.828125 -6.00520833 37.65625 -4.5078125 36.484375 C-0.73585463 32.7710486 -0.71204891 28.95665557 -0.5859375 23.828125 C-0.56657135 23.1457074 -0.5472052 22.46328979 -0.5272522 21.76019287 C-0.46768902 19.59025392 -0.42116554 17.42026123 -0.375 15.25 C-0.33679869 13.77471703 -0.2977457 12.29945585 -0.2578125 10.82421875 C-0.16200765 7.21634582 -0.07789084 3.60830917 0 0 Z " fill="#CBCBCB" transform="translate(55,24)"/>
<path d="M0 0 C3.63 0 7.26 0 11 0 C11 0.66 11 1.32 11 2 C9.68 2 8.36 2 7 2 C7 6.62 7 11.24 7 16 C6.01 16 5.02 16 4 16 C4 11.38 4 6.76 4 2 C2.68 2 1.36 2 0 2 C0 1.34 0 0.68 0 0 Z " fill="#1C1C1C" transform="translate(360,12)"/>
<path d="M0 0 C0.495 4.95 0.495 4.95 1 10 C-0.32 10.33 -1.64 10.66 -3 11 C-3 10.01 -3 9.02 -3 8 C-2.34 8 -1.68 8 -1 8 C-1 6.02 -1 4.04 -1 2 C-11.89 2 -22.78 2 -34 2 C-34 1.67 -34 1.34 -34 1 C-11.08868502 -0.14984709 -11.08868502 -0.14984709 0 0 Z " fill="#D9D9D9" transform="translate(254,25)"/>
<path d="M0 0 C2.78449986 1.17805763 4.47489598 2.43172362 6.75 4.5 C10.21192722 7.50921366 13.54307395 8.15472092 18 9 C18 9.99 18 10.98 18 12 C15.24921116 12.91692961 13.64051087 13.10886083 10.8125 13.0625 C8.9253125 13.0315625 8.9253125 13.0315625 7 13 C6.67 12.34 6.34 11.68 6 11 C7.32 10.67 8.64 10.34 10 10 C9.278125 9.44570312 8.55625 8.89140625 7.8125 8.3203125 C6.884375 7.59585938 5.95625 6.87140625 5 6.125 C3.6078125 5.04605469 3.6078125 5.04605469 2.1875 3.9453125 C1.465625 3.30335937 0.74375 2.66140625 0 2 C0 1.34 0 0.68 0 0 Z " fill="#BDBDBD" transform="translate(101,62)"/>
<path d="M0 0 C1.134375 0.020625 2.26875 0.04125 3.4375 0.0625 C-0.3125 2.0625 -0.3125 2.0625 -2.5625 2.0625 C-1.5725 4.3725 -0.5825 6.6825 0.4375 9.0625 C-0.5525 9.0625 -1.5425 9.0625 -2.5625 9.0625 C-2.5625 8.4025 -2.5625 7.7425 -2.5625 7.0625 C-4.5425 7.0625 -6.5225 7.0625 -8.5625 7.0625 C-8.5625 6.4025 -8.5625 5.7425 -8.5625 5.0625 C-9.8825 4.7325 -11.2025 4.4025 -12.5625 4.0625 C-11.99660156 3.85753906 -11.43070313 3.65257812 -10.84765625 3.44140625 C-10.11417969 3.17199219 -9.38070312 2.90257812 -8.625 2.625 C-7.89410156 2.35816406 -7.16320313 2.09132813 -6.41015625 1.81640625 C-2.04654255 0.03590426 -2.04654255 0.03590426 0 0 Z " fill="#2D2D2D" transform="translate(61.5625,16.9375)"/>
<path d="M0 0 C1 1 1 1 1.09765625 3.50390625 C1.08605469 4.51324219 1.07445312 5.52257812 1.0625 6.5625 C1.05347656 7.57441406 1.04445313 8.58632813 1.03515625 9.62890625 C1.02355469 10.41136719 1.01195312 11.19382812 1 12 C0.01 12 -0.98 12 -2 12 C-1.67 8.7 -1.34 5.4 -1 2 C-7.6 2 -14.2 2 -21 2 C-21.33 2.66 -21.66 3.32 -22 4 C-22 3.01 -22 2.02 -22 1 C-19.45847098 0.83096719 -16.91681012 0.66470573 -14.375 0.5 C-13.30572266 0.42845703 -13.30572266 0.42845703 -12.21484375 0.35546875 C-8.13982467 0.09377028 -4.08487349 -0.1508261 0 0 Z " fill="#E3E3E3" transform="translate(317,25)"/>
<path d="M0 0 C0.78375 0.04125 1.5675 0.0825 2.375 0.125 C1.6325 0.846875 0.89 1.56875 0.125 2.3125 C-2.31993133 4.81299795 -4.47080482 7.37654408 -6.625 10.125 C-7.285 10.785 -7.945 11.445 -8.625 12.125 C-10.56298263 14.89760299 -10.56298263 14.89760299 -11.625 17.125 C-12.285 17.125 -12.945 17.125 -13.625 17.125 C-12.29221299 11.34958964 -6.60006852 0.31428898 0 0 Z " fill="#404040" transform="translate(200.625,24.875)"/>
<path d="M0 0 C0.43200679 4.75207471 -1.01510917 7.78210698 -3 12 C-3.33 12 -3.66 12 -4 12 C-4 9.03 -4 6.06 -4 3 C-9.61 3 -15.22 3 -21 3 C-21 2.67 -21 2.34 -21 2 C-13.94546999 0.79556805 -7.16562789 -0.28100502 0 0 Z " fill="#C1C1C1" transform="translate(128,25)"/>
<path d="M0 0 C0.99 0.33 1.98 0.66 3 1 C2.34 4.63 1.68 8.26 1 12 C-8.9 12 -18.8 12 -29 12 C-28.67 11.34 -28.34 10.68 -28 10 C-19.09 10 -10.18 10 -1 10 C-0.67 6.7 -0.34 3.4 0 0 Z " fill="#505050" transform="translate(362,53)"/>
<path d="M0 0 C2.41696872 -0.05411124 4.83271787 -0.09372278 7.25 -0.125 C7.93191406 -0.14175781 8.61382812 -0.15851562 9.31640625 -0.17578125 C13.0608235 -0.21213482 15.82352727 -0.07944349 19 2 C14.9453778 4.70308147 11.76123668 4.54301708 7 4 C4.48098014 3.2062105 2.3649658 2.20764211 0 1 C0 0.67 0 0.34 0 0 Z " fill="#868686" transform="translate(27,63)"/>
<path d="M0 0 C0.66 0 1.32 0 2 0 C2 6.6 2 13.2 2 20 C1.01 19.67 0.02 19.34 -1 19 C-0.67 12.73 -0.34 6.46 0 0 Z " fill="#EDEDED" transform="translate(90,31)"/>
<path d="M0 0 C0.33 0 0.66 0 1 0 C1.02685095 2.47923801 1.04676547 4.9581884 1.0625 7.4375 C1.07087891 8.14455078 1.07925781 8.85160156 1.08789062 9.58007812 C1.09653588 11.38693559 1.05220011 13.19387603 1 15 C0.67 15.33 0.34 15.66 0 16 C3.96 16.33 7.92 16.66 12 17 C12 17.33 12 17.66 12 18 C9.87562788 18.19448477 7.75046809 18.38038289 5.625 18.5625 C4.44164062 18.66691406 3.25828125 18.77132812 2.0390625 18.87890625 C-1 19 -1 19 -3 18 C-2.125 14.125 -2.125 14.125 -1 13 C-0.76518307 10.81707226 -0.58636677 8.62796826 -0.4375 6.4375 C-0.35371094 5.23996094 -0.26992187 4.04242188 -0.18359375 2.80859375 C-0.12300781 1.88175781 -0.06242188 0.95492187 0 0 Z " fill="#F7F7F7" transform="translate(179,48)"/>
<path d="M0 0 C1.65 0 3.3 0 5 0 C5.33 0.66 5.66 1.32 6 2 C4.68 2 3.36 2 2 2 C2 5.3 2 8.6 2 12 C3.670625 12.2165625 3.670625 12.2165625 5.375 12.4375 C9 13 9 13 11 14 C10 15 10 15 7.71484375 15.09765625 C5.14322917 15.06510417 2.57161458 15.03255208 0 15 C0 10.05 0 5.1 0 0 Z " fill="#E2E2E2" transform="translate(343,30)"/>
<path d="M0 0 C1.98 0 3.96 0 6 0 C5.79375 0.94875 5.5875 1.8975 5.375 2.875 C5.25125 3.90625 5.1275 4.9375 5 6 C5.66 6.66 6.32 7.32 7 8 C6.67 8.99 6.34 9.98 6 11 C4.8274869 10.04882866 3.66212985 9.08882991 2.5 8.125 C1.8503125 7.59132813 1.200625 7.05765625 0.53125 6.5078125 C0.0259375 6.01023437 -0.479375 5.51265625 -1 5 C-1 4.34 -1 3.68 -1 3 C-0.34 2.67 0.32 2.34 1 2 C0.67 1.34 0.34 0.68 0 0 Z " fill="#C9C9C9" transform="translate(60,16)"/>
<path d="M0 0 C1.65 0 3.3 0 5 0 C5 0.66 5 1.32 5 2 C4.34 2 3.68 2 3 2 C3.33 2.598125 3.66 3.19625 4 3.8125 C5 6 5 6 5 9 C2.53199953 7.84826645 0.95216435 6.95216435 -1 5 C-0.625 2.375 -0.625 2.375 0 0 Z " fill="#E9E9E9" transform="translate(107,30)"/>
<path d="M0 0 C0.99 0 1.98 0 3 0 C3 4.95 3 9.9 3 15 C2.67 15 2.34 15 2 15 C2 11.7 2 8.4 2 5 C1.34 5 0.68 5 0 5 C-0.33 6.32 -0.66 7.64 -1 9 C-2.0326802 6.21176345 -2.04509293 5.1322726 -1.0625 2.25 C-0.711875 1.5075 -0.36125 0.765 0 0 Z " fill="#0D0D0D" transform="translate(387,12)"/>
<path d="M0 0 C0.66 0 1.32 0 2 0 C1.125 6.875 1.125 6.875 0 8 C-1.66617115 8.04063832 -3.33388095 8.042721 -5 8 C-5.33 7.34 -5.66 6.68 -6 6 C-5.34 6 -4.68 6 -4 6 C-3.71125 5.38125 -3.4225 4.7625 -3.125 4.125 C-2 2 -2 2 0 0 Z " fill="#4E4E4E" transform="translate(361,56)"/>
<path d="M0 0 C2.31 0.33 4.62 0.66 7 1 C7.33 2.32 7.66 3.64 8 5 C7.34 4.67 6.68 4.34 6 4 C6 3.34 6 2.68 6 2 C4.68 2 3.36 2 2 2 C1.97287934 3.43739513 1.95354933 4.87493863 1.9375 6.3125 C1.92589844 7.11300781 1.91429687 7.91351563 1.90234375 8.73828125 C1.90342145 11.16861334 1.90342145 11.16861334 3 14 C2.01 14 1.02 14 0 14 C0 9.38 0 4.76 0 0 Z " fill="#E3E3E3" transform="translate(307,30)"/>
<path d="M0 0 C0.66 0 1.32 0 2 0 C3.04976964 3.14930893 3.10131595 5.38814456 3.0625 8.6875 C3.05347656 9.68136719 3.04445313 10.67523438 3.03515625 11.69921875 C3.02355469 12.45847656 3.01195312 13.21773437 3 14 C2.01 14 1.02 14 0 14 C-0.33 13.01 -0.66 12.02 -1 11 C-0.34 11 0.32 11 1 11 C0.51515724 6.35413108 0.51515724 6.35413108 -1 2 C-0.67 1.34 -0.34 0.68 0 0 Z " fill="#DDDDDD" transform="translate(355,39)"/>
<path d="M0 0 C0.66 0 1.32 0 2 0 C2.17835515 4.54805635 1.99785435 7.8794254 0 12 C-0.33 12 -0.66 12 -1 12 C-1 10.02 -1 8.04 -1 6 C-1.66 6 -2.32 6 -3 6 C-1.125 1.125 -1.125 1.125 0 0 Z " fill="#BEBEBE" transform="translate(327,53)"/>
<path d="M0 0 C1.37095624 3.69037278 0.60010967 5.70883835 -0.9375 9.25 C-1.31777344 10.14203125 -1.69804687 11.0340625 -2.08984375 11.953125 C-2.39019531 12.62859375 -2.69054687 13.3040625 -3 14 C-3.66 14 -4.32 14 -5 14 C-4.53411505 8.29290936 -3.06242216 4.84060277 0 0 Z " fill="#C0C0C0" transform="translate(195,32)"/>
<path d="M0 0 C0 1.98 0 3.96 0 6 C-3.875 4.125 -3.875 4.125 -5 3 C-6.51469448 2.76807135 -8.03754562 2.58784762 -9.5625 2.4375 C-10.38878906 2.35371094 -11.21507812 2.26992188 -12.06640625 2.18359375 C-12.70449219 2.12300781 -13.34257812 2.06242187 -14 2 C-14 1.67 -14 1.34 -14 1 C-12.22932584 0.83165067 -10.45845388 0.66538091 -8.6875 0.5 C-7.70136719 0.4071875 -6.71523437 0.314375 -5.69921875 0.21875 C-3 0 -3 0 0 0 Z " fill="#303030" transform="translate(253,27)"/>
<path d="M0 0 C8.25 0 16.5 0 25 0 C25 0.33 25 0.66 25 1 C17.74 1 10.48 1 3 1 C3 1.66 3 2.32 3 3 C2.01 3 1.02 3 0 3 C0 2.01 0 1.02 0 0 Z " fill="#E2E2E2" transform="translate(255,26)"/>
<path d="M0 0 C1.45792884 -0.05399736 2.91642712 -0.09279177 4.375 -0.125 C5.18710938 -0.14820312 5.99921875 -0.17140625 6.8359375 -0.1953125 C9 0 9 0 11 2 C11 2.99 11 3.98 11 5 C11.66 5.33 12.32 5.66 13 6 C11.125 5.6875 11.125 5.6875 9 5 C8.34 4.01 7.68 3.02 7 2 C4.41619823 1.74969023 4.41619823 1.74969023 2 2 C1.67 3.98 1.34 5.96 1 8 C0.67 8 0.34 8 0 8 C0 5.36 0 2.72 0 0 Z " fill="#F5F5F5" transform="translate(154,30)"/>
<path d="M0 0 C3.63 0 7.26 0 11 0 C11.33 0.99 11.66 1.98 12 3 C6.06 3.495 6.06 3.495 0 4 C0 2.68 0 1.36 0 0 Z " fill="#A4A4A4" transform="translate(230,63)"/>
<path d="M0 0 C4.87664009 -0.34833144 7.77050005 0.58314288 12 3 C12 3.33 12 3.66 12 4 C10.56344146 4.08131463 9.1255517 4.13933559 7.6875 4.1875 C6.48673828 4.23970703 6.48673828 4.23970703 5.26171875 4.29296875 C2.51075586 3.93662641 1.67775411 3.15556111 0 1 C0 0.67 0 0.34 0 0 Z " fill="#3B3B3B" transform="translate(102,69)"/>
<path d="M0 0 C1.98 0 3.96 0 6 0 C6.33 3.3 6.66 6.6 7 10 C5.68 10.33 4.36 10.66 3 11 C3 10.01 3 9.02 3 8 C3.66 8 4.32 8 5 8 C5 5.69 5 3.38 5 1 C3.35 1 1.7 1 0 1 C0 0.67 0 0.34 0 0 Z " fill="#E5E5E5" transform="translate(248,25)"/>
<path d="M0 0 C2.31 0 4.62 0 7 0 C6.2884375 0.495 6.2884375 0.495 5.5625 1 C3.14208385 4.09813267 3.31801083 7.12026792 3 11 C2.34 11 1.68 11 1 11 C1.33 8.36 1.66 5.72 2 3 C1.01 2.67 0.02 2.34 -1 2 C-0.67 1.34 -0.34 0.68 0 0 Z " fill="#969696" transform="translate(164,24)"/>
<path d="M0 0 C0 0.33 0 0.66 0 1 C-0.56589844 1.13277344 -1.13179687 1.26554687 -1.71484375 1.40234375 C-2.81505859 1.66724609 -2.81505859 1.66724609 -3.9375 1.9375 C-5.03384766 2.19853516 -5.03384766 2.19853516 -6.15234375 2.46484375 C-7.99969898 2.83887569 -7.99969898 2.83887569 -9 4 C-10.99958364 4.04080783 -13.00045254 4.04254356 -15 4 C-13.66666667 3.33333333 -12.33333333 2.66666667 -11 2 C-10.030625 1.443125 -9.06125 0.88625 -8.0625 0.3125 C-4.72434517 -1.11813778 -3.38946491 -1.09659159 0 0 Z " fill="#F9F9F9" transform="translate(66,15)"/>
<path d="M0 0 C0 3.16820458 -0.62797454 4.25594908 -2 7 C-2 7.99 -2 8.98 -2 10 C-3.65 8.35 -5.3 6.7 -7 5 C-4.69 3.35 -2.38 1.7 0 0 Z " fill="#CACACA" transform="translate(286,43)"/>
<path d="M0 0 C3.85103301 0.53675903 5.31797587 2.11600923 7.75 5.0625 C8.36359375 5.79597656 8.9771875 6.52945313 9.609375 7.28515625 C10.06828125 7.85105469 10.5271875 8.41695312 11 9 C10.67 9.66 10.34 10.32 10 11 C8.33035479 9.35718838 6.6643536 7.71067239 5 6.0625 C4.071875 5.14597656 3.14375 4.22945312 2.1875 3.28515625 C0 1 0 1 0 0 Z " fill="#CDCDCD" transform="translate(78,38)"/>
<path d="M0 0 C0.66 0.33 1.32 0.66 2 1 C1.01 2.485 1.01 2.485 0 4 C-0.70812814 6.32108669 -1.38024152 8.65377147 -2 11 C-2.66 10.01 -3.32 9.02 -4 8 C-3.15955106 4.56816682 -2.51471866 2.51471866 0 0 Z " fill="#CECECE" transform="translate(217,30)"/>
<path d="M0 0 C0.721875 0.825 1.44375 1.65 2.1875 2.5 C4.72917366 5.24407806 4.72917366 5.24407806 7.8125 5.3125 C8.8953125 5.1578125 8.8953125 5.1578125 10 5 C8.68 6.32 7.36 7.64 6 9 C4.99406757 7.8803014 3.9954151 6.7540588 3 5.625 C2.443125 4.99851562 1.88625 4.37203125 1.3125 3.7265625 C0 2 0 2 0 0 Z " fill="#BFBFBF" transform="translate(288,57)"/>
<path d="M0 0 C0 1.65 0 3.3 0 5 C-1.98 5 -3.96 5 -6 5 C-6 4.34 -6 3.68 -6 3 C-2.53846154 0 -2.53846154 0 0 0 Z " fill="#151515" transform="translate(326,59)"/>
<path d="M0 0 C0.28875 0.639375 0.5775 1.27875 0.875 1.9375 C1.82823451 4.15206079 1.82823451 4.15206079 4 5 C3.01 5 2.02 5 1 5 C0.67 5.99 0.34 6.98 0 8 C-0.33 8 -0.66 8 -1 8 C-1.04241723 5.66705225 -1.04092937 3.33297433 -1 1 C-0.67 0.67 -0.34 0.34 0 0 Z " fill="#E0E0E0" transform="translate(125,36)"/>
<path d="M0 0 C0.99 0.33 1.98 0.66 3 1 C2.34 4.63 1.68 8.26 1 12 C0.67 12 0.34 12 0 12 C0 8.04 0 4.08 0 0 Z " fill="#CECECE" transform="translate(362,53)"/>
<path d="M0 0 C3 1 3 1 4.6875 4.0625 C5.120625 5.031875 5.55375 6.00125 6 7 C3.83125748 6.49396008 2.00032373 6.00016187 0 5 C0 3.35 0 1.7 0 0 Z " fill="#626262" transform="translate(103,31)"/>
<path d="M0 0 C1.98 0.99 1.98 0.99 4 2 C2.89131683 4.21736634 1.50559539 6.03617993 0 8 C0 5.36 0 2.72 0 0 Z " fill="#F6F6F6" transform="translate(167,27)"/>
<path d="M0 0 C1.670625 0.061875 1.670625 0.061875 3.375 0.125 C-0.375 2.125 -0.375 2.125 -2.625 2.125 C-2.295 3.115 -1.965 4.105 -1.625 5.125 C-2.285 5.125 -2.945 5.125 -3.625 5.125 C-3.625 4.465 -3.625 3.805 -3.625 3.125 C-4.285 2.795 -4.945 2.465 -5.625 2.125 C-3.625 0.125 -3.625 0.125 0 0 Z " fill="#525252" transform="translate(61.625,16.875)"/>
<path d="" fill="#FFFFFF" transform="translate(0,0)"/>
</svg>
